<svg xmlns="http://www.w3.org/2000/svg" width="80" height="80" viewBox="0 0 80 80" fill="none">
  <path d="M40 10C56.5685 10 70 23.4315 70 40C70 56.5685 56.5685 70 40 70C23.4315 70 10 56.5685 10 40C10 23.4315 23.4315 10 40 10Z" fill="#6F55FF"/>
  <path d="M52.213 29.8188C53.1241 28.9079 54.6016 28.9081 55.5128 29.8188C56.4238 30.7301 56.4239 32.2085 55.5128 33.1196L38.0548 50.5767C37.1437 51.4877 35.6662 51.4876 34.755 50.5767L26.4855 42.3071C25.5747 41.3959 25.5745 39.9184 26.4855 39.0073C27.3967 38.0961 28.8751 38.0961 29.7863 39.0073L36.4044 45.6265L52.213 29.8188Z" fill="white"/>
</svg>