<svg xmlns="http://www.w3.org/2000/svg" width="20" height="20" viewBox="0 0 20 20" fill="none">
  <path d="M10.833 3.50017C12.1215 3.50017 13.1667 4.54474 13.167 5.83318H15L15.2559 5.84587C16.5163 5.97399 17.4999 7.03891 17.5 8.33318V14.1662C17.5 15.4605 16.5164 16.5253 15.2559 16.6535L15 16.6662H5C3.61929 16.6662 2.5 15.5469 2.5 14.1662V8.33318C2.50009 6.95254 3.61934 5.83318 5 5.83318H6.83301C6.83327 4.54474 7.87849 3.50017 9.16699 3.50017H10.833ZM3.83301 14.1662C3.83301 14.8105 4.35567 15.3332 5 15.3332H15C15.6443 15.3332 16.167 14.8105 16.167 14.1662V12.1691C14.6511 13.2423 12.4761 13.8009 10.3252 13.8439C8.05615 13.8892 5.64015 13.3678 3.83301 12.1125V14.1662ZM5 7.16618C4.35572 7.16618 3.8331 7.68892 3.83301 8.33318V10.3869C5.32736 11.8601 7.81169 12.5596 10.2988 12.5099C12.8169 12.4596 15.0882 11.6499 16.1602 10.3996L16.167 10.4054V8.33318C16.1669 7.68892 15.6443 7.16618 15 7.16618H5ZM10 10.0002C10.4602 10.0002 10.8329 10.373 10.833 10.8332C10.833 11.2934 10.4602 11.6662 10 11.6662C9.53976 11.6662 9.16699 11.2934 9.16699 10.8332C9.16708 10.373 9.53982 10.0002 10 10.0002ZM9.16699 4.83415C8.61487 4.83415 8.16726 5.28112 8.16699 5.83318H11.833C11.8327 5.28112 11.3851 4.83415 10.833 4.83415H9.16699Z" fill="#6F55FF"/>
</svg>