<svg xmlns="http://www.w3.org/2000/svg" width="20" height="20" viewBox="0 0 20 20" fill="none">
  <path d="M12.1045 2.08331C12.83 2.08333 13.4181 2.66797 13.4248 3.39191H13.8066C15.1385 3.39213 16.2185 4.47212 16.2188 5.80402V14.9681C16.2185 16.2999 15.1385 17.38 13.8066 17.3802H8.83105C8.46332 17.3799 8.16542 17.0819 8.16504 16.7142C8.16504 16.3461 8.46309 16.0474 8.83105 16.0472H13.8066C14.4021 16.047 14.8845 15.5636 14.8848 14.9681V5.80402C14.8845 5.2085 14.4022 4.72611 13.8066 4.72589H13.4248C13.4182 5.44989 12.8301 6.03545 12.1045 6.03546H8.17676C7.4515 6.03509 6.86308 5.44967 6.85645 4.72589H6.3877C5.7923 4.72625 5.30979 5.20859 5.30957 5.80402V10.1683C5.30929 10.5362 5.01059 10.8353 4.64258 10.8353C4.27468 10.8351 3.97587 10.5361 3.97559 10.1683V5.80402C3.97581 4.47221 5.05592 3.39227 6.3877 3.39191H6.85645C6.86315 2.66819 7.45155 2.08369 8.17676 2.08331H12.1045ZM8.84277 9.06476C9.10066 9.06476 9.35646 9.11551 9.59473 9.21417C9.83304 9.3129 10.049 9.45853 10.2314 9.64093C10.4139 9.82335 10.5595 10.0393 10.6582 10.2776C10.7569 10.5159 10.8076 10.7717 10.8076 11.0296C10.8076 11.2874 10.7568 11.5433 10.6582 11.7816C10.5595 12.0197 10.4138 12.2369 10.2314 12.4193L7.16895 15.4798C6.94467 15.704 6.66673 15.8684 6.3623 15.9573L4.60938 16.4691C4.44224 16.5177 4.26434 16.5201 4.0957 16.4769C3.92701 16.4336 3.77256 16.3461 3.64941 16.223C3.52626 16.0998 3.43779 15.9454 3.39453 15.7767C3.35139 15.6081 3.35467 15.4301 3.40332 15.263L3.91504 13.5101V13.5091C4.00394 13.2048 4.16851 12.9276 4.39258 12.7034L7.45312 9.64093H7.4541C7.63639 9.45863 7.85268 9.3129 8.09082 9.21417C8.32903 9.1155 8.58494 9.06481 8.84277 9.06476ZM8.84277 10.3987C8.76012 10.3988 8.67794 10.415 8.60156 10.4466C8.52518 10.4783 8.45497 10.5248 8.39648 10.5833L5.33594 13.6458H5.33496C5.26938 13.7115 5.2205 13.7931 5.19434 13.8821L4.86816 15.0032L5.98926 14.6771C6.0783 14.651 6.15985 14.6029 6.22559 14.5374L6.22656 14.5364L9.28906 11.4759L9.36719 11.3802C9.38992 11.3462 9.40998 11.3098 9.42578 11.2718C9.45746 11.1953 9.47359 11.1124 9.47363 11.0296C9.47362 10.9468 9.4574 10.8649 9.42578 10.7884C9.39406 10.7118 9.34766 10.6419 9.28906 10.5833C9.23046 10.5247 9.16053 10.4783 9.08398 10.4466C9.00755 10.415 8.92548 10.3987 8.84277 10.3987ZM8.18945 4.70148H12.0928V4.06769C12.0927 4.06476 12.0918 4.06184 12.0918 4.0589C12.0918 4.0558 12.0927 4.05222 12.0928 4.04913V3.4173H8.18945V4.70148Z" fill="#6F55FF"/>
</svg>