<svg xmlns="http://www.w3.org/2000/svg" width="20" height="20" viewBox="0 0 20 20" fill="none">
  <path d="M10.166 4.08325C13.8016 4.08348 16.7498 7.03068 16.75 10.6663C16.75 12.2438 16.1929 13.6905 15.2676 14.8245L16.4717 16.0286C16.7315 16.2888 16.7314 16.7107 16.4717 16.9709C16.2114 17.2312 15.7887 17.231 15.5283 16.9709L14.3252 15.7678C13.1912 16.6936 11.7439 17.2501 10.166 17.2502C8.58821 17.2502 7.14071 16.6935 6.00684 15.7678L4.80469 16.9709C4.54437 17.2313 4.12168 17.2312 3.86133 16.9709C3.60136 16.7106 3.60125 16.2888 3.86133 16.0286L5.06348 14.8254C4.13817 13.6915 3.58303 12.2439 3.58301 10.6663C3.58318 7.03064 6.5304 4.08343 10.166 4.08325ZM10.166 5.58325C7.35883 5.58343 5.08318 7.85907 5.08301 10.6663C5.08305 13.4736 7.35874 15.7501 10.166 15.7502C12.9732 15.75 15.25 13.4735 15.25 10.6663C15.2498 7.8591 12.9732 5.58348 10.166 5.58325ZM10.166 7.08325C10.5342 7.0833 10.833 7.38209 10.833 7.75024V10.4719L12.29 11.8489C12.5575 12.1017 12.5701 12.5237 12.3174 12.7913C12.0647 13.0586 11.6426 13.0709 11.375 12.8186L9.70801 11.2444C9.57478 11.1185 9.49913 10.9423 9.49902 10.759V7.75024C9.49902 7.38205 9.79783 7.08325 10.166 7.08325ZM4.52734 2.86157C4.78767 2.60134 5.21038 2.60133 5.4707 2.86157C5.73102 3.12189 5.73096 3.54458 5.4707 3.80493L3.1377 6.13794C2.87735 6.39829 2.45469 6.39828 2.19434 6.13794C1.93407 5.87758 1.93401 5.4549 2.19434 5.19458L4.52734 2.86157ZM14.5225 2.86743C14.7797 2.60425 15.2015 2.59953 15.4648 2.85669L17.8545 5.1897C18.1176 5.4469 18.1222 5.86872 17.8652 6.13208C17.6081 6.39527 17.1862 6.40073 16.9229 6.1438L14.5332 3.80981C14.2702 3.55254 14.2654 3.13072 14.5225 2.86743Z" fill="#6F55FF"/>
</svg>