<svg xmlns="http://www.w3.org/2000/svg" width="24" height="24" viewBox="0 0 24 24" fill="none">
  <path d="M20 13.2002C20.4418 13.2002 20.7998 13.5582 20.7998 14V20C20.7998 20.4418 20.4418 20.7998 20 20.7998H4C3.55817 20.7998 3.2002 20.4418 3.2002 20V14C3.2002 13.5582 3.55817 13.2002 4 13.2002C4.44183 13.2002 4.7998 13.5582 4.7998 14V19.2002H19.2002V14C19.2002 13.5582 19.5582 13.2002 20 13.2002ZM12 3.2002C12.4417 3.2003 12.7998 3.55823 12.7998 4V13.7188L15.9688 10.9023C16.299 10.6088 16.8041 10.6385 17.0977 10.9688C17.3912 11.299 17.3615 11.8041 17.0312 12.0977L12.5312 16.0977C12.2282 16.367 11.7719 16.367 11.4688 16.0977L6.96875 12.0977C6.63853 11.8041 6.60881 11.299 6.90234 10.9688C7.19588 10.6385 7.70103 10.6088 8.03125 10.9023L11.2002 13.7188V4C11.2002 3.55817 11.5582 3.2002 12 3.2002Z" fill="#585F69"/>
</svg>