<svg xmlns="http://www.w3.org/2000/svg" width="80" height="80" viewBox="0 0 80 80" fill="none">
  <path d="M40 10C56.5685 10 70 23.4315 70 40C70 56.5685 56.5685 70 40 70C23.4315 70 10 56.5685 10 40C10 23.4315 23.4315 10 40 10Z" fill="#6F55FF"/>
  <path d="M40.001 50.7197C41.8945 50.7198 43.4297 52.2549 43.4297 54.1484C43.4294 56.0417 41.8943 57.5761 40.001 57.5762C38.1076 57.5762 36.5725 56.0418 36.5723 54.1484C36.5723 52.2549 38.1074 50.7197 40.001 50.7197ZM40 22C41.6569 22 43 23.3431 43 25V42.1426C43 43.7994 41.6569 45.1426 40 45.1426C38.3431 45.1426 37 43.7994 37 42.1426V25C37 23.3431 38.3431 22 40 22Z" fill="white"/>
</svg>