<svg xmlns="http://www.w3.org/2000/svg" width="20" height="20" viewBox="0 0 20 20" fill="none">
  <path d="M10 2.5332C10.4417 2.5332 10.7996 2.89133 10.7998 3.33301V9.19629H16.6709C17.1127 9.19638 17.4707 9.55432 17.4707 9.99609C17.4706 10.4378 17.1126 10.7958 16.6709 10.7959H10.7998V16.666C10.7998 17.1078 10.4418 17.4668 10 17.4668C9.55817 17.4668 9.2002 17.1078 9.2002 16.666V10.7959H3.33789C2.89612 10.7959 2.5372 10.4378 2.53711 9.99609C2.53711 9.55427 2.89606 9.19629 3.33789 9.19629H9.2002V3.33301C9.20037 2.89133 9.55828 2.5332 10 2.5332Z" fill="#949BA7"/>
</svg>