<svg xmlns="http://www.w3.org/2000/svg" width="24" height="24" viewBox="0 0 24 24" fill="none">
  <mask id="path-1-inside-1_2118_7635" fill="white">
    <path d="M12 3C16.9706 3 21 7.02944 21 12C21 16.9706 16.9706 21 12 21C7.02944 21 3 16.9706 3 12C3 7.02944 7.02944 3 12 3Z"/>
  </mask>
  <path d="M12 3V4.6C16.0869 4.6 19.4 7.91309 19.4 12H21H22.6C22.6 6.14578 17.8542 1.4 12 1.4V3ZM21 12H19.4C19.4 16.0869 16.0869 19.4 12 19.4V21V22.6C17.8542 22.6 22.6 17.8542 22.6 12H21ZM12 21V19.4C7.91309 19.4 4.6 16.0869 4.6 12H3H1.4C1.4 17.8542 6.14578 22.6 12 22.6V21ZM3 12H4.6C4.6 7.91309 7.91309 4.6 12 4.6V3V1.4C6.14578 1.4 1.4 6.14578 1.4 12H3Z" fill="#949BA7" mask="url(#path-1-inside-1_2118_7635)"/>
  <path d="M12.0079 15.1816C12.4495 15.1817 12.8076 15.5398 12.8077 15.9814C12.8077 16.4231 12.4496 16.781 12.0079 16.7812H12.0011C11.5593 16.7812 11.2013 16.4232 11.2013 15.9814C11.2015 15.5397 11.5594 15.1816 12.0011 15.1816H12.0079ZM10.5197 7.5888C11.0935 7.25166 11.769 7.12766 12.4249 7.24017C13.0808 7.35273 13.676 7.69402 14.1046 8.20306C14.5329 8.71188 14.7673 9.35635 14.7667 10.0214C14.7667 11.1187 13.9544 11.8324 13.4015 12.2011C13.1701 12.3554 12.9398 12.4741 12.7482 12.5663V13.329C12.7482 13.7708 12.3901 14.1297 11.9484 14.1298C11.5065 14.1298 11.1486 13.7709 11.1486 13.329V12.04C11.1487 11.6965 11.368 11.3916 11.6935 11.2822L11.6954 11.2812L11.7501 11.2607C11.7936 11.2441 11.8591 11.2179 11.9386 11.1826C12.1002 11.1107 12.3101 11.0058 12.5138 10.8701C12.9699 10.5659 13.1671 10.2695 13.1671 10.0214V10.0204C13.1675 9.73277 13.0662 9.45342 12.881 9.23333C12.6957 9.01329 12.4379 8.86601 12.1544 8.81732C11.871 8.76871 11.5791 8.82218 11.3312 8.96771C11.0832 9.11346 10.8945 9.34287 10.7989 9.61419C10.6523 10.031 10.1952 10.25 9.77844 10.1035C9.36171 9.9568 9.14258 9.4997 9.28918 9.08294C9.51006 8.45541 9.94617 7.926 10.5197 7.5888Z" fill="#949BA7"/>
</svg>