<svg xmlns="http://www.w3.org/2000/svg" width="20" height="20" viewBox="0 0 20 20" fill="none">
  <rect width="20" height="20" rx="4" fill="#FFEB3B"/>
  <path d="M9.98537 4.6221C13.2723 4.61251 15.9425 6.711 15.9502 9.30374C15.9576 11.9001 13.2994 14.0109 10.0147 14.0205C9.65031 14.0225 9.29145 13.9962 8.94435 13.9483L6.5381 15.584C6.50742 15.6089 6.46809 15.6201 6.43166 15.6201C6.38775 15.62 6.34401 15.6028 6.31154 15.5703C6.26551 15.5262 6.24845 15.4569 6.26955 15.3955L6.82326 13.2998C5.16069 12.4714 4.05661 11.0082 4.0508 9.33988C4.04313 6.74337 6.70046 4.63182 9.98537 4.6221ZM5.82424 7.99124C5.65949 7.99316 5.5715 8.12554 5.57131 8.25199C5.57131 8.3728 5.63825 8.51172 5.82619 8.5098H6.42482L6.43068 10.5762C6.4326 10.7603 6.53948 10.8759 6.71584 10.8741C6.89211 10.8721 6.99983 10.759 7.00002 10.5752L6.99806 10.5733L6.9922 8.50394H7.59084C7.78017 8.50375 7.84557 8.3715 7.84572 8.24515C7.84572 8.11868 7.75551 7.9856 7.59084 7.98538L5.82424 7.99124ZM8.74904 7.95902C8.5285 7.96093 8.38661 8.13191 8.32717 8.293L7.50783 10.4825C7.50016 10.5035 7.48341 10.5499 7.48341 10.6075C7.48347 10.755 7.60565 10.87 7.76271 10.8702C7.90453 10.8702 7.99104 10.8049 8.03517 10.667L8.16213 10.2813L9.3506 10.2774L9.4756 10.667C9.51974 10.8011 9.61209 10.8643 9.75392 10.8643H9.75588C9.90136 10.8622 10.0145 10.7551 10.0147 10.6172C10.0147 10.5961 10.0064 10.5398 9.98146 10.4707L9.17482 8.2891C9.09815 8.07826 8.9445 7.95914 8.74904 7.95902ZM12.4629 7.94925C12.2982 7.95137 12.1797 8.06862 12.1797 8.23148L12.1875 10.586C12.1875 10.747 12.3021 10.8564 12.4727 10.8565C12.6357 10.8565 12.7568 10.7394 12.7549 10.584V9.81742L12.958 9.60843L13.708 10.625C13.8172 10.7725 13.877 10.8391 13.9824 10.8487C13.9977 10.8506 14.0111 10.8506 14.0264 10.8506C14.0878 10.8506 14.2893 10.8336 14.3106 10.627L14.3086 10.628C14.3237 10.5132 14.2542 10.4227 14.1699 10.3135L13.3574 9.25492L14.0401 8.56351C14.0649 8.5348 14.0874 8.50739 14.1084 8.48441C14.2024 8.38085 14.249 8.32866 14.249 8.25003C14.2526 8.08354 14.1145 7.99318 13.9766 7.98929C13.8674 7.99121 13.7941 8.05067 13.75 8.09476L12.749 9.14261V8.22952C12.7471 8.06077 12.6278 7.94733 12.4629 7.94925ZM10.5879 7.95511C10.4116 7.95511 10.3039 8.06813 10.3037 8.25199L10.3096 10.5157C10.3116 10.713 10.4235 10.8301 10.6094 10.8301L11.669 10.8262C11.8396 10.8262 11.9356 10.697 11.9395 10.5762C11.9421 10.5068 11.9181 10.4395 11.8731 10.3907C11.8233 10.339 11.7521 10.3117 11.668 10.3135H10.8789L10.874 8.25199C10.8739 8.06816 10.7642 7.95515 10.5879 7.95511ZM8.75392 8.48245L9.18752 9.77835H8.31935L8.74416 8.48245H8.74318C8.74518 8.47681 8.75392 8.47674 8.75392 8.48245Z" fill="#1C1C1B"/>
</svg>