<svg xmlns="http://www.w3.org/2000/svg" width="48" height="48" viewBox="0 0 48 48" fill="none">
  <rect width="48" height="48" rx="10.148" fill="url(#paint0_linear_1223_6066)"/>
  <path d="M20.1352 27.9115H35.6198L27.8896 35.6659H16.3065C14.1384 35.6659 12.3809 33.9083 12.3809 31.7403L12.3809 20.1572L20.1352 12.3301V27.9115Z" fill="white"/>
  <path d="M23.8868 14.7051C25.3268 15.393 26.939 15.7782 28.6413 15.7782C30.3434 15.7782 31.9555 15.393 33.3954 14.7052C32.7076 16.1451 32.3224 17.7572 32.3224 19.4593C32.3224 21.1615 32.7076 22.7736 33.3954 24.2135C31.9555 23.5257 30.3434 23.1405 28.6413 23.1405C25.767 23.1405 21.5471 26.7017 21.0127 27.0877C21.3762 26.5687 24.96 23.4884 24.96 19.4593C24.96 17.7571 24.5747 16.145 23.8868 14.7051Z" fill="white"/>
  <defs>
    <linearGradient id="paint0_linear_1223_6066" x1="25.9028" y1="-19.8393" x2="25.7505" y2="65.0994" gradientUnits="userSpaceOnUse">
      <stop stop-color="#A28AFF"/>
      <stop offset="0.627666" stop-color="#5415FF"/>
      <stop offset="0.998076" stop-color="#010824"/>
    </linearGradient>
  </defs>
</svg>