<svg xmlns="http://www.w3.org/2000/svg" width="28" height="28" viewBox="0 0 28 28" fill="none">
  <path d="M9.3335 3.9541H14.8833C15.691 3.9541 16.4664 4.27462 17.0376 4.8457L20.8208 8.62891C21.392 9.20013 21.7124 9.97537 21.7124 10.7832V21C21.7124 22.6822 20.3487 24.0459 18.6665 24.0459H9.3335C7.65127 24.0459 6.2876 22.6822 6.2876 21V7C6.2876 5.31777 7.65127 3.9541 9.3335 3.9541Z" fill="white" stroke="#B4BBC7" stroke-width="0.908108"/>
  <rect x="3.91016" y="12.8335" width="12.8333" height="8.16667" rx="2.04167" fill="#585F69"/>
  <path d="M7.42676 15.1353C8.22434 15.1353 8.67871 15.6237 8.67871 16.3149C8.67865 17.0158 8.2145 17.4946 7.40723 17.4946H6.7793V18.6353H6.05371V15.1353H7.42676ZM10.3359 15.1353C11.3897 15.1353 12.0322 15.7927 12.0322 16.8804C12.0322 17.9777 11.3897 18.6353 10.3213 18.6353H9.08887V15.1353H10.3359ZM14.8164 15.7349H13.2354V16.5854H14.666V17.1851H13.2354V18.6353H12.5098V15.1353H14.8164V15.7349ZM9.81348 18.0112H10.292C10.9591 18.0112 11.3076 17.6635 11.3076 16.8804C11.3076 16.1021 10.9592 15.7593 10.2969 15.7593H9.81348V18.0112ZM6.7793 16.9097H7.29102C7.72121 16.9097 7.92964 16.6678 7.92969 16.3149C7.92969 15.9669 7.72126 15.73 7.29102 15.73H6.7793V16.9097Z" fill="white"/>
  <path d="M21.4413 10.4998H16.3277C15.6856 10.4998 15.1643 9.98103 15.1611 9.33897L15.1353 4.16211" stroke="#B4BBC7" stroke-width="0.908108"/>
</svg>