<svg xmlns="http://www.w3.org/2000/svg" width="24" height="24" viewBox="0 0 24 24" fill="none">
  <path d="M16.7645 6.10291C17.0769 5.79053 17.5839 5.79062 17.8964 6.10291C18.2083 6.41524 18.2083 6.92143 17.8964 7.23376L13.162 11.9681L17.8964 16.7025C18.2087 17.0149 18.2086 17.522 17.8964 17.8344C17.5841 18.1463 17.0778 18.1462 16.7655 17.8344L12.0302 13.099L7.29578 17.8344C6.98343 18.1462 6.4772 18.1463 6.16492 17.8344C5.85268 17.522 5.85268 17.0149 6.16492 16.7025L10.8993 11.9681L6.16492 7.23376C5.85296 6.92143 5.85296 6.41524 6.16492 6.10291C6.47734 5.79058 6.98437 5.79052 7.29675 6.10291L12.0302 10.8363L16.7645 6.10291Z" fill="white"/>
</svg>