<svg xmlns="http://www.w3.org/2000/svg" width="20" height="20" viewBox="0 0 20 20" fill="none">
  <path d="M13.9717 5.08545C14.232 4.82568 14.6539 4.8254 14.9141 5.08545C15.1741 5.34576 15.1742 5.76853 14.9141 6.02881L10.9688 9.97412L14.9141 13.9194C15.1739 14.1798 15.1742 14.6016 14.9141 14.8618C14.6537 15.1221 14.231 15.1221 13.9707 14.8618L10.0254 10.9165L6.08105 14.8618C5.82079 15.1221 5.39807 15.1219 5.1377 14.8618C4.87759 14.6016 4.87776 14.1798 5.1377 13.9194L9.08301 9.97412L5.1377 6.02881C4.87736 5.76847 4.87738 5.3458 5.1377 5.08545C5.39793 4.82534 5.81974 4.82551 6.08008 5.08545L10.0254 9.03076L13.9717 5.08545Z" fill="white"/>
</svg>