<svg xmlns="http://www.w3.org/2000/svg" width="24" height="24" viewBox="0 0 24 24" fill="none">
  <path d="M18.1768 5C18.6315 5.00012 18.9999 5.36853 19 5.82324V9.42676C18.9997 9.8813 18.6313 10.2499 18.1768 10.25C17.7221 10.2499 17.3528 9.88134 17.3525 9.42676V6.64648H12.8232V17.3535H15.0889C15.5435 17.3538 15.9121 17.7221 15.9121 18.1768C15.9121 18.6314 15.5434 18.9997 15.0889 19H8.91211C8.45731 19 8.08893 18.6315 8.08887 18.1768C8.08887 17.7219 8.45727 17.3535 8.91211 17.3535H11.1768V6.64648H6.64648V9.42676C6.64623 9.88138 6.27792 10.25 5.82324 10.25C5.36861 10.2499 5.00025 9.88134 5 9.42676V5.82324C5.00006 5.36849 5.36849 5.00006 5.82324 5H18.1768Z" fill="#FF334B"/>
</svg>