<svg xmlns="http://www.w3.org/2000/svg" width="24" height="24" viewBox="0 0 24 24" fill="none">
  <path d="M12 5.2002C12.4418 5.2002 12.7998 5.55817 12.7998 6V18C12.7998 18.4418 12.4418 18.7998 12 18.7998C11.5582 18.7998 11.2002 18.4418 11.2002 18V12.7998H4.7998V18C4.7998 18.4418 4.44183 18.7998 4 18.7998C3.55817 18.7998 3.2002 18.4418 3.2002 18V6C3.2002 5.55817 3.55817 5.2002 4 5.2002C4.44183 5.2002 4.7998 5.55817 4.7998 6V11.2002H11.2002V6C11.2002 5.55817 11.5582 5.2002 12 5.2002ZM16.5195 10.3594C17.6931 9.47917 18.9636 9.26978 20.0029 9.61621C21.0329 9.95955 21.7998 10.8589 21.7998 12C21.7998 12.9627 21.4657 13.6594 20.9521 14.1943C20.4891 14.6766 19.8706 15.0235 19.4238 15.3027C18.9341 15.6088 18.5503 15.8855 18.2725 16.2676C18.1044 16.4986 17.9585 16.7935 17.875 17.2002H21C21.4418 17.2002 21.7998 17.5582 21.7998 18C21.7997 18.4417 21.4418 18.7998 21 18.7998H17C16.5582 18.7998 16.2003 18.4417 16.2002 18C16.2002 16.8547 16.4901 15.9965 16.9775 15.3262C17.4497 14.677 18.0659 14.2652 18.5762 13.9463C19.1293 13.6006 19.5109 13.3848 19.7979 13.0859C20.0341 12.8397 20.2002 12.5369 20.2002 12C20.2002 11.6411 19.9671 11.2905 19.4971 11.1338C19.0364 10.9802 18.3067 11.0201 17.4805 11.6396C17.127 11.9047 16.6254 11.833 16.3604 11.4795C16.0953 11.1261 16.1662 10.6245 16.5195 10.3594Z" fill="#585F69"/>
</svg>