<svg xmlns="http://www.w3.org/2000/svg" width="24" height="24" viewBox="0 0 24 24" fill="none">
  <path d="M12 5.2002C12.4418 5.2002 12.7998 5.55817 12.7998 6V18C12.7998 18.4418 12.4418 18.7998 12 18.7998C11.5582 18.7998 11.2002 18.4418 11.2002 18V12.7998H4.7998V18C4.7998 18.4418 4.44183 18.7998 4 18.7998C3.55817 18.7998 3.2002 18.4418 3.2002 18V6C3.2002 5.55817 3.55817 5.2002 4 5.2002C4.44183 5.2002 4.7998 5.55817 4.7998 6V11.2002H11.2002V6C11.2002 5.55817 11.5582 5.2002 12 5.2002ZM19.5566 9.33398C19.8021 9.17061 20.118 9.15579 20.3779 9.29492C20.6378 9.43421 20.7998 9.70514 20.7998 10V18C20.7998 18.4418 20.4418 18.7998 20 18.7998C19.5582 18.7998 19.2002 18.4418 19.2002 18V11.4941L17.4434 12.666C17.0758 12.9107 16.579 12.8108 16.334 12.4434C16.0893 12.0758 16.1892 11.579 16.5566 11.334L19.5566 9.33398Z" fill="#585F69"/>
</svg>