<svg xmlns="http://www.w3.org/2000/svg" width="24" height="24" viewBox="0 0 24 24" fill="none">
  <path d="M15.9346 10.4346C17.851 8.51828 20.7998 9.66578 20.7998 12C20.7997 12.6629 20.5627 13.2998 20.1387 13.8027C20.3885 13.9671 20.6311 14.1795 20.8301 14.457C21.1285 14.8732 21.2998 15.3899 21.2998 16C21.2998 17.2976 20.411 18.299 19.3682 18.7305C18.3032 19.171 16.9468 19.0777 15.9346 18.0654C15.6222 17.753 15.6222 17.247 15.9346 16.9346C16.247 16.6222 16.753 16.6222 17.0654 16.9346C17.5532 17.4223 18.1968 17.4837 18.7568 17.252C19.3388 17.0111 19.7002 16.5132 19.7002 16C19.7002 15.7046 19.6215 15.5183 19.5293 15.3896C19.4308 15.2524 19.2833 15.1351 19.0879 15.04C18.6781 14.8407 18.189 14.7998 18 14.7998C17.5583 14.7998 17.2003 14.4417 17.2002 14C17.2002 13.5582 17.5582 13.2002 18 13.2002C18.3182 13.2002 18.6236 13.0736 18.8486 12.8486C19.0736 12.6237 19.2001 12.3182 19.2002 12C19.2002 11.3342 18.149 10.482 17.0654 11.5654C16.753 11.8778 16.247 11.8777 15.9346 11.5654C15.6222 11.253 15.6222 10.747 15.9346 10.4346ZM12 5.2002C12.4418 5.2002 12.7998 5.55817 12.7998 6V18C12.7998 18.4418 12.4418 18.7998 12 18.7998C11.5582 18.7998 11.2002 18.4418 11.2002 18V12.7998H4.7998V18C4.7998 18.4418 4.44183 18.7998 4 18.7998C3.55817 18.7998 3.2002 18.4418 3.2002 18V6C3.2002 5.55817 3.55817 5.2002 4 5.2002C4.44183 5.2002 4.7998 5.55817 4.7998 6V11.2002H11.2002V6C11.2002 5.55817 11.5582 5.2002 12 5.2002Z" fill="#585F69"/>
</svg>