<svg xmlns="http://www.w3.org/2000/svg" width="128" height="128" viewBox="0 0 128 128" fill="none">
  <rect width="127.918" height="127.918" rx="27.044" fill="url(#paint0_linear_312_424)"/>
  <path d="M53.66 74.3827H94.9257L74.3252 95.0478H43.4566C37.6787 95.0478 32.9949 90.3639 32.9949 84.5861V53.7175L53.66 32.8586V74.3827Z" fill="white"/>
  <path d="M63.6576 39.1865C67.495 41.0197 71.7916 42.0464 76.328 42.0464C80.8641 42.0464 85.1603 41.0197 88.9975 39.1868C87.1645 43.024 86.138 47.3203 86.138 51.8564C86.138 56.3925 87.1645 60.6888 88.9975 64.526C85.1603 62.6931 80.8641 61.6665 76.328 61.6665C68.668 61.6665 57.4222 71.157 55.998 72.1857C56.9667 70.8027 66.5174 62.5937 66.5174 51.8564C66.5174 47.3201 65.4907 43.0238 63.6576 39.1865Z" fill="white"/>
  <defs>
    <linearGradient id="paint0_linear_312_424" x1="69.0299" y1="-52.8711" x2="68.6243" y2="173.488" gradientUnits="userSpaceOnUse">
      <stop stop-color="#A28AFF"/>
      <stop offset="0.627666" stop-color="#5415FF"/>
      <stop offset="0.998076" stop-color="#010824"/>
    </linearGradient>
  </defs>
</svg>