<svg width="3000" height="678" viewBox="0 0 3000 678" fill="none" xmlns="http://www.w3.org/2000/svg">
<path d="M522.825 323.26C464.05 283.309 388.565 299.635 349.19 359.754C316.153 410.077 266.406 416.224 247.007 416.224C184.007 416.224 140.982 371.855 128.305 326.141C128.305 326.141 128.113 325.373 127.921 324.797C127.921 324.22 127.729 323.836 127.537 323.26C122.543 304.245 121.199 295.025 121.199 274.858C121.199 165.375 233.562 43.4087 395.48 43.4087C557.398 43.4087 656.124 169.601 680.325 239.708C679.941 238.363 679.557 237.211 679.173 235.867C632.115 98.7259 502.081 0 348.998 0C156.156 0 0 156.156 0 348.998C0 521.288 124.272 668.801 296.562 668.801C433.895 668.801 526.474 591.779 568.73 485.562C591.971 427.556 575.453 359.178 522.825 323.26Z" fill="#003668"/>
<path d="M682.629 246.231C662.269 177.853 566.808 43.209 395.479 43.209C233.56 43.209 121.197 165.176 121.197 274.658C121.197 295.018 122.35 304.045 127.536 323.06C125.423 314.801 124.27 306.35 124.27 298.283C124.27 184.191 238.554 105.057 355.911 105.057C514.756 105.057 643.638 233.938 643.638 392.783C643.638 517.439 571.994 625.193 467.698 676.86C601.958 628.266 697.803 499.768 697.803 348.798C697.803 313.073 693.001 281.573 682.437 246.039" fill="#E6002D"/>
<path d="M996.286 498.412V602.9H979.575V518.772L952.109 602.9H935.975L908.7 518.772V602.9H891.798V498.412H917.535L944.042 579.659L970.356 498.412H996.286Z" fill="#595757"/>
<path d="M1037.58 504.38C1037.58 507.261 1036.62 509.758 1034.32 511.871C1032.2 513.984 1029.51 515.136 1026.63 515.136C1023.75 515.136 1021.06 513.984 1018.95 511.871C1016.84 509.758 1015.69 507.261 1015.69 504.38C1015.69 501.499 1016.84 498.81 1018.95 496.697C1021.06 494.584 1023.56 493.432 1026.63 493.432C1029.71 493.432 1032.2 494.584 1034.32 496.697C1036.43 498.81 1037.58 501.499 1037.58 504.38ZM1018.18 527.813H1035.47V602.914H1018.18V527.813Z" fill="#595757"/>
<path d="M1074.46 565.287V603.125H1057.37V528.024H1073.89V538.012C1075.81 534.555 1078.69 531.674 1082.72 529.369C1086.37 527.256 1090.6 526.104 1095.01 526.104C1103.85 526.104 1110.76 529.177 1116.33 535.131C1121.52 541.277 1124.4 549.344 1124.4 559.332V602.933H1107.31V563.558C1107.31 555.491 1105.96 549.729 1103.47 545.695C1100.78 542.046 1096.74 539.933 1091.37 539.933C1088.68 539.933 1085.8 540.893 1083.3 542.814C1080.61 544.735 1078.5 547.232 1077.15 550.305C1075.42 553.954 1074.65 558.948 1074.65 565.095" fill="#595757"/>
<path d="M1164.93 504.38C1164.93 507.261 1163.78 509.758 1161.66 511.871C1159.55 513.984 1156.86 515.136 1153.98 515.136C1150.91 515.136 1148.41 513.984 1146.3 511.871C1144.19 509.758 1143.03 507.261 1143.03 504.38C1143.03 501.499 1143.99 498.81 1146.3 496.697C1148.41 494.584 1150.91 493.432 1153.98 493.432C1156.86 493.432 1159.55 494.584 1161.66 496.697C1163.78 498.81 1164.93 501.499 1164.93 504.38ZM1145.53 527.813H1162.62V602.914H1145.53V527.813Z" fill="#595757"/>
<path d="M1177.99 588.912L1188.75 577.963C1191.63 582.189 1194.89 585.262 1198.54 587.567C1202 589.68 1205.84 590.832 1209.68 590.832C1213.52 590.832 1216.79 590.064 1219.48 588.335C1221.98 586.799 1223.32 584.878 1223.32 582.189C1223.32 579.692 1222.17 577.579 1219.67 576.043C1216.98 574.698 1213.91 573.354 1210.45 572.009C1206.42 570.857 1202.19 569.32 1197.97 567.591C1192.2 565.671 1187.98 562.79 1185.29 559.524C1182.6 556.259 1181.06 552.61 1181.06 548.384C1181.06 542.238 1183.95 537.052 1189.71 532.634C1195.47 528.216 1202.19 526.104 1210.07 526.104C1217.94 526.104 1225.24 528.024 1230.62 532.058C1233.31 534.171 1235.61 536.86 1237.15 539.933L1226.78 550.113C1225.24 547.808 1223.7 545.887 1221.78 544.351C1218.33 541.662 1214.29 540.125 1209.3 540.125C1206.23 540.125 1203.73 540.893 1201.62 542.238C1199.5 543.774 1198.35 545.503 1198.35 547.424C1198.35 549.537 1199.5 551.457 1202 552.802C1204.31 554.338 1207.76 555.875 1212.56 557.219C1214.29 557.796 1216.21 558.564 1218.33 559.14C1225.43 561.637 1231 564.71 1234.84 568.36C1238.49 572.201 1240.61 576.811 1240.61 581.997C1240.61 588.335 1237.53 593.713 1231.58 598.131C1225.43 602.741 1217.94 605.046 1208.72 605.046C1200.66 605.046 1193.74 603.125 1187.98 599.476C1183.95 597.171 1180.49 593.713 1177.61 589.104" fill="#595757"/>
<path d="M1277.67 503.632V527.833H1294V541.47H1277.67V579.693C1277.67 583.342 1278.44 586.031 1280.17 587.184C1281.9 588.528 1284.4 589.104 1287.47 589.104H1293.81V602.742H1283.44C1275.37 602.742 1269.42 600.821 1265.77 597.171C1262.12 593.714 1260.2 588.336 1260.2 581.229V541.278H1247.33V527.641H1260.2V503.439H1277.48L1277.67 503.632Z" fill="#595757"/>
<path d="M1309.36 602.924V527.823H1325.5V538.963C1327.99 535.314 1330.88 532.433 1334.52 530.32C1338.75 527.823 1343.94 526.479 1349.7 526.479H1350.85V541.652H1348.93C1341.82 541.652 1336.25 543.765 1332.03 548.183C1327.99 552.408 1326.07 558.939 1326.07 567.774V602.732H1308.98L1309.36 602.924Z" fill="#595757"/>
<path d="M1387.93 600.044L1358.54 527.824H1376.02L1396.57 579.108L1416.74 527.824H1434.41L1392.54 632.12H1375.06L1387.93 600.044Z" fill="#595757"/>
<path d="M1520.46 604.854C1509.32 604.854 1500.1 601.204 1492.42 593.521C1484.54 586.031 1480.7 576.619 1480.7 565.479C1480.7 554.338 1484.54 545.119 1492.42 537.436C1500.1 529.945 1509.51 526.104 1520.46 526.104C1531.41 526.104 1540.82 529.945 1548.69 537.436C1556.38 545.119 1560.22 554.53 1560.22 565.479C1560.22 576.427 1556.38 586.031 1548.69 593.521C1540.82 601.204 1531.41 604.854 1520.46 604.854ZM1520.46 590.64C1526.61 590.64 1531.98 588.335 1536.4 583.342C1540.63 578.732 1542.93 572.777 1542.93 565.287C1542.93 557.796 1540.63 552.033 1536.4 547.232C1531.98 542.43 1526.61 539.933 1520.46 539.933C1514.31 539.933 1508.94 542.43 1504.71 547.232C1500.1 552.033 1497.99 558.18 1497.99 565.287C1497.99 572.393 1500.1 578.732 1504.71 583.342C1508.94 588.335 1514.31 590.64 1520.46 590.64Z" fill="#595757"/>
<path d="M1580 513.026C1580 505.919 1581.92 500.541 1585.96 496.892C1589.8 493.434 1595.75 491.514 1604.01 491.514H1612.27V505.151H1607.28C1604.01 505.151 1601.51 505.919 1599.98 507.072C1598.06 508.416 1597.48 510.913 1597.48 514.563V527.816H1612.46V541.453H1597.48V602.916H1580.19V541.453H1567.32V527.816H1580.19V512.834L1580 513.026Z" fill="#595757"/>
<path d="M1668.36 581.786L1679.88 570.07C1682.95 576.6 1686.99 581.594 1691.6 584.667C1696.59 587.932 1701.78 589.661 1706.96 589.661C1712.53 589.661 1717.14 588.316 1721.18 585.243C1725.02 582.554 1726.94 578.713 1726.94 574.103C1726.94 570.069 1725.02 566.804 1721.18 564.115C1717.14 561.618 1712.92 559.505 1708.31 557.585C1703.7 555.856 1698.7 554.127 1693.9 552.015C1686.03 549.133 1680.26 545.292 1676.81 540.49C1673.35 535.88 1671.62 530.886 1671.62 525.7C1671.62 517.633 1675.08 510.527 1681.99 504.764C1688.72 499.194 1697.17 496.121 1707.35 496.121C1717.53 496.121 1726.36 498.81 1732.89 504.188C1736.35 506.877 1738.65 509.95 1740 513.024L1729.63 523.972C1728.67 522.243 1726.94 520.13 1724.44 517.825C1719.45 513.216 1713.49 510.911 1706.39 510.911C1701.97 510.911 1698.13 512.063 1694.86 514.56C1691.4 517.057 1689.87 520.322 1689.87 524.356C1689.87 530.694 1696.59 536.265 1710.23 540.874C1712.72 541.835 1715.22 542.795 1717.91 543.563C1726.94 547.021 1733.85 551.246 1738.46 555.856C1742.88 560.658 1745.18 566.612 1745.18 573.527C1745.18 581.786 1741.73 589.085 1734.62 595.039C1727.51 601.185 1718.49 604.259 1707.54 604.259C1697.36 604.259 1688.91 601.954 1682.18 597.344C1675.65 592.926 1671.04 587.548 1668.55 581.21" fill="#595757"/>
<path d="M1865.03 498.412V602.9H1848.13V518.772L1820.86 602.9H1804.53L1777.45 518.772V602.9H1760.55V498.412H1786.28L1812.79 579.659L1839.1 498.412H1865.03Z" fill="#595757"/>
<path d="M1955.89 602.9H1887.12V498.412H1955.69V513.01H1904.79V543.165H1954.35V557.379H1904.79V588.303H1955.89V602.9Z" fill="#595757"/>
<path d="M1967.41 588.912L1978.16 577.963C1981.05 582.189 1984.31 585.262 1987.96 587.567C1991.42 589.68 1995.26 590.832 1999.1 590.832C2002.94 590.832 2006.21 590.064 2008.9 588.335C2011.39 586.799 2012.74 584.878 2012.74 582.189C2012.74 579.692 2011.59 577.579 2009.09 576.043C2006.59 574.698 2003.52 573.354 1999.87 572.009C1995.84 570.857 1991.61 569.32 1987.38 567.591C1981.62 565.671 1977.4 562.79 1974.9 559.524C1972.21 556.259 1970.67 552.61 1970.67 548.384C1970.67 542.238 1973.55 537.052 1979.32 532.634C1985.08 528.216 1991.8 526.104 1999.68 526.104C2007.55 526.104 2014.85 528.024 2020.23 532.058C2022.92 534.171 2025.22 536.86 2026.76 539.933L2016.39 550.113C2014.85 547.808 2013.31 545.887 2011.59 544.351C2008.13 541.662 2004.09 540.125 1999.1 540.125C1996.03 540.125 1993.53 540.893 1991.42 542.238C1989.3 543.774 1988.15 545.503 1988.15 547.424C1988.15 549.537 1989.5 551.457 1991.8 552.802C1994.11 554.338 1997.56 555.875 2002.37 557.219C2004.09 557.796 2006.02 558.564 2008.13 559.14C2015.43 561.637 2020.8 564.71 2024.65 568.36C2028.3 572.201 2030.22 576.811 2030.22 581.997C2030.22 588.335 2027.14 593.713 2021.19 598.131C2015.04 602.741 2007.55 605.046 1998.33 605.046C1990.27 605.046 1983.35 603.125 1977.59 599.476C1973.55 597.171 1970.1 593.713 1967.22 589.104" fill="#595757"/>
<path d="M2122.42 554.53H2140.28C2140.28 549.729 2138.17 546.079 2134.52 543.582C2130.48 541.085 2124.91 539.933 2118 539.933H2117.62C2110.89 539.933 2103.59 541.662 2095.91 544.735L2091.69 531.29C2099.56 528.024 2108.2 526.296 2117.81 526.104H2118.19C2130.87 526.104 2140.47 528.408 2147.2 533.402C2153.92 538.396 2157.38 546.079 2157.38 556.643V603.125H2141.05V594.866C2137.78 598.131 2133.94 600.628 2129.33 602.165C2124.53 604.085 2119.73 604.854 2115.12 604.854C2106.28 604.854 2098.98 602.549 2093.41 597.555C2087.84 592.945 2084.96 587.183 2084.96 580.076C2084.96 572.393 2088.42 566.055 2095.34 561.061C2101.67 556.835 2110.7 554.53 2122.42 554.53ZM2117.81 591.409C2122.03 591.409 2126.64 590.256 2130.87 588.143C2135.29 586.031 2138.17 583.534 2140.28 580.652V567.976H2125.11C2116.46 567.976 2110.51 569.128 2107.24 571.241C2103.79 573.738 2102.25 576.811 2102.25 580.076C2102.25 583.342 2103.59 586.031 2106.48 588.143C2109.16 590.256 2113.01 591.409 2118 591.409" fill="#595757"/>
<path d="M2195.01 565.287V603.125H2177.92V528.024H2194.44V538.012C2196.36 534.555 2199.24 531.674 2203.27 529.369C2206.92 527.256 2211.15 526.104 2215.57 526.104C2224.4 526.104 2231.32 529.177 2236.89 535.131C2242.07 541.277 2244.95 549.344 2244.95 559.332V602.933H2227.86V563.558C2227.86 555.491 2226.52 549.729 2224.02 545.695C2221.33 542.046 2217.3 539.933 2211.92 539.933C2209.23 539.933 2206.35 540.893 2203.85 542.814C2201.16 544.735 2199.24 547.232 2197.7 550.305C2195.98 553.954 2195.4 558.948 2195.4 565.095" fill="#595757"/>
<path d="M2297.39 526.087C2306.23 526.087 2313.91 529.736 2320.44 536.843V491.514H2337.54V602.916H2321.02V593.313C2314.68 600.996 2306.81 604.645 2297.39 604.645C2286.25 604.645 2277.61 600.804 2270.89 592.737C2263.97 585.054 2260.71 575.834 2260.71 565.27C2260.71 554.706 2264.17 545.486 2270.89 537.419C2277.61 529.736 2286.45 525.703 2297.39 525.703M2320.25 569.88C2320.64 566.615 2320.64 563.349 2320.25 560.276C2319.68 554.706 2317.56 549.904 2313.91 546.063C2309.88 542.029 2304.89 539.724 2298.93 539.724C2292.4 539.724 2287.02 542.221 2283.37 547.023C2279.34 551.825 2277.61 557.971 2277.61 565.078C2277.61 572.185 2279.53 578.523 2283.37 583.133C2287.02 588.127 2292.21 590.432 2298.93 590.432C2304.69 590.432 2309.88 588.511 2313.91 584.093C2317.56 580.444 2319.68 575.642 2320.25 569.88Z" fill="#595757"/>
<path d="M2399.38 581.786L2410.91 570.07C2413.98 576.6 2418.01 581.594 2422.82 584.667C2427.62 587.932 2433 589.661 2438.18 589.661C2443.75 589.661 2448.36 588.316 2452.4 585.243C2456.24 582.554 2458.16 578.713 2458.16 574.103C2458.16 570.069 2456.24 566.804 2452.4 564.115C2448.36 561.618 2444.14 559.505 2439.53 557.585C2434.92 555.856 2429.92 554.127 2425.12 552.015C2417.25 549.133 2411.48 545.292 2408.22 540.49C2404.57 535.88 2403.03 530.886 2403.03 525.7C2403.03 517.633 2406.49 510.527 2413.4 504.764C2420.13 499.194 2428.58 496.121 2438.76 496.121C2448.94 496.121 2457.77 498.81 2464.3 504.188C2467.76 506.877 2470.07 509.95 2471.41 513.024L2460.85 523.972C2459.89 522.243 2458.16 520.13 2455.85 517.825C2450.67 513.216 2444.71 510.911 2437.61 510.911C2433.19 510.911 2429.35 512.063 2426.08 514.56C2422.62 517.057 2421.09 520.322 2421.09 524.356C2421.09 530.694 2427.81 536.265 2441.45 540.874C2443.94 541.835 2446.25 542.795 2449.13 543.563C2458.16 547.021 2465.07 551.246 2469.68 555.856C2474.1 560.658 2476.4 566.612 2476.4 573.527C2476.4 581.786 2472.95 589.085 2465.84 595.039C2458.73 601.185 2449.71 604.259 2438.57 604.259C2428.39 604.259 2419.74 601.954 2413.21 597.344C2406.68 592.926 2402.26 587.548 2399.58 581.21" fill="#595757"/>
<path d="M2510.02 503.632V527.833H2526.16V541.47H2510.02V579.693C2510.02 583.342 2510.79 586.031 2512.52 587.184C2514.06 588.528 2516.55 589.104 2519.82 589.104H2526.16V602.742H2515.98C2507.91 602.742 2501.96 600.821 2498.31 597.171C2494.66 593.714 2492.74 588.336 2492.74 581.229V541.278H2479.87V527.641H2492.74V503.439H2510.02V503.632Z" fill="#595757"/>
<path d="M2574.17 554.53H2592.03C2592.03 549.729 2590.11 546.079 2586.46 543.582C2582.43 541.085 2576.86 539.933 2569.75 539.933H2569.37C2562.65 539.933 2555.35 541.662 2547.67 544.735L2543.25 531.29C2551.12 528.024 2559.96 526.296 2569.37 526.104H2569.56C2582.24 526.104 2591.84 528.408 2598.56 533.402C2605.29 538.396 2608.74 546.079 2608.74 556.643V603.125H2592.42V594.866C2589.15 598.131 2585.31 600.628 2580.7 602.165C2575.9 604.085 2571.1 604.854 2566.3 604.854C2557.46 604.854 2550.16 602.549 2544.78 597.555C2539.21 592.945 2536.33 587.183 2536.33 580.076C2536.33 572.393 2539.79 566.055 2546.9 561.061C2553.24 556.835 2562.26 554.53 2573.98 554.53M2569.37 591.409C2573.6 591.409 2578.2 590.256 2582.43 588.143C2586.66 586.031 2589.73 583.534 2591.84 580.652V567.976H2576.67C2568.02 567.976 2562.07 569.128 2558.61 571.241C2555.16 573.738 2553.62 576.811 2553.62 580.076C2553.62 583.342 2554.96 586.031 2557.85 588.143C2560.53 590.256 2564.38 591.409 2569.37 591.409Z" fill="#595757"/>
<path d="M2629.87 602.924V527.823H2646.01V538.963C2648.31 535.314 2651.39 532.433 2655.04 530.32C2659.26 527.823 2664.45 526.479 2670.21 526.479H2671.36V541.652H2669.63C2662.53 541.652 2656.96 543.765 2652.73 548.183C2648.7 552.408 2646.97 558.939 2646.97 567.774V602.732H2629.87V602.924Z" fill="#595757"/>
<path d="M2711.7 503.632V527.833H2728.03V541.47H2711.7V579.693C2711.7 583.342 2712.47 586.031 2714.2 587.184C2715.93 588.528 2718.42 589.104 2721.69 589.104H2728.03V602.742H2717.65C2709.59 602.742 2703.63 600.821 2699.98 597.171C2696.33 593.714 2694.41 588.336 2694.41 581.229V541.278H2681.54V527.641H2694.41V503.439H2711.7V503.632Z" fill="#595757"/>
<path d="M2793.14 565.663V527.824H2810.23V602.925H2793.71V592.937C2791.6 596.587 2788.91 599.468 2785.45 601.388C2781.42 603.693 2777 604.846 2772.78 604.846C2763.94 604.846 2756.83 601.965 2751.65 595.818C2746.08 589.864 2743.58 581.605 2743.58 571.617V528.016H2760.68V567.391C2760.68 575.459 2761.83 581.413 2764.71 585.062C2767.21 589.096 2771.05 590.824 2776.62 590.824C2779.31 590.824 2782 589.864 2784.69 588.135C2787.18 586.215 2789.29 583.91 2790.83 580.645C2792.37 576.995 2793.33 572.001 2793.33 565.855" fill="#595757"/>
<path d="M2871.31 604.854C2862.09 604.854 2854.41 601.204 2848.26 594.098V632.128H2831.16V527.832H2847.68V537.436C2854.02 529.945 2861.9 526.104 2871.31 526.104C2882.26 526.104 2891.09 529.945 2898.01 537.82C2904.73 545.887 2908.19 555.107 2908.19 565.671C2908.19 576.235 2904.73 585.454 2898.01 593.137C2891.09 601.204 2882.26 605.046 2871.31 605.046M2848.45 570.473C2849.03 576.235 2851.14 580.845 2854.79 584.686C2858.82 588.912 2863.62 591.024 2869.77 591.024C2876.11 591.024 2881.49 588.72 2885.33 583.726C2888.98 579.116 2891.09 573.162 2891.09 565.671C2891.09 558.18 2889.17 552.418 2885.33 547.616C2881.3 542.814 2876.11 540.317 2869.77 540.317C2863.82 540.317 2858.82 542.43 2854.79 546.655C2851.14 550.497 2849.03 555.299 2848.45 560.869C2848.07 564.134 2848.07 567.207 2848.45 570.473Z" fill="#595757"/>
<path d="M2916.83 588.912L2927.59 577.963C2930.47 582.189 2933.74 585.262 2937.39 587.567C2940.65 589.68 2944.49 590.832 2948.53 590.832C2952.56 590.832 2955.63 590.064 2958.32 588.335C2960.82 586.799 2962.16 584.878 2962.16 582.189C2962.16 579.692 2961.01 577.579 2958.51 576.043C2956.02 574.698 2952.94 573.354 2949.29 572.009C2945.07 570.857 2941.03 569.32 2936.62 567.591C2930.85 565.671 2926.63 562.79 2923.94 559.524C2921.25 556.259 2919.71 552.61 2919.71 548.384C2919.71 542.238 2922.6 537.052 2928.55 532.634C2934.12 528.216 2941.03 526.104 2948.91 526.104C2956.78 526.104 2964.08 528.024 2969.46 532.058C2972.15 534.171 2974.46 536.86 2975.99 539.933L2965.62 550.113C2964.08 547.808 2962.55 545.887 2960.63 544.351C2957.17 541.662 2953.14 540.125 2948.14 540.125C2945.07 540.125 2942.57 540.893 2940.46 542.238C2938.35 543.774 2937.19 545.503 2937.19 547.424C2937.19 549.537 2938.35 551.457 2940.84 552.802C2943.15 554.338 2946.6 555.875 2951.41 557.219C2953.14 557.796 2955.06 558.564 2957.17 559.14C2964.47 561.637 2970.04 564.71 2973.88 568.36C2977.53 572.201 2979.45 576.811 2979.45 581.997C2979.45 588.335 2976.38 593.713 2970.42 598.131C2964.28 602.741 2956.78 605.046 2947.57 605.046C2939.69 605.046 2932.58 603.125 2926.82 599.476C2922.79 597.171 2919.33 593.713 2916.45 589.104" fill="#595757"/>
<path d="M990.717 269.683V252.012H872.976V220.32H1146.1V252.012H1027.98V269.683C1031.44 270.643 1035.09 271.795 1038.54 273.14C1047.38 276.981 1055.25 281.591 1062.17 287.93C1069.08 294.46 1074.46 301.567 1078.49 309.826C1082.14 318.277 1084.26 327.305 1084.26 336.716C1084.26 346.128 1082.14 355.155 1078.49 363.415C1074.46 371.866 1068.89 379.357 1062.17 385.695C1055.25 391.842 1047.57 397.028 1038.54 400.293C1029.32 404.134 1019.72 405.863 1009.54 405.863C999.36 405.863 989.373 404.134 980.537 400.293C971.318 396.835 963.443 391.842 956.912 385.695C949.997 379.549 944.619 372.058 940.97 363.415C936.936 355.348 934.824 346.32 934.824 336.716C934.824 327.113 936.936 318.277 940.97 309.826C944.619 301.567 950.189 294.46 956.912 287.93C963.443 281.783 971.318 276.981 980.537 273.14C983.994 271.795 987.452 270.835 990.717 269.683ZM1126.9 130.045H1026.63L1132.47 186.323L1115.76 213.597L1009.54 156.935L903.323 213.597L886.613 186.323L992.446 130.045H892.183V98.5449H1127.09V130.045H1126.9ZM1047.76 336.524C1047.76 326.344 1044.11 317.317 1036.43 309.826C1028.56 302.719 1019.72 298.878 1009.54 298.878C999.36 298.878 990.333 302.719 982.842 309.826C974.967 317.317 971.318 326.152 971.318 336.524C971.318 346.896 974.967 355.732 982.842 362.838C990.333 370.329 999.168 373.979 1009.54 373.979C1019.91 373.979 1028.75 370.329 1036.43 362.838C1043.92 355.732 1047.76 346.704 1047.76 336.524Z" fill="#595757"/>
<path d="M1295.16 337.664V252.383H1332.42V337.664H1450.54V370.508H1177.61V337.664H1295.35H1295.16ZM1313.98 156.538L1215.06 280.426L1186.44 258.913L1314.17 99.4922L1441.71 258.913L1413.09 280.426L1314.17 156.538H1313.98Z" fill="#595757"/>
<path d="M1622.45 259.093H1493.76V101.401H1528.91V144.041H1587.87V101.401H1622.25V259.093H1622.45ZM1506.43 386.438V287.136H1543.31V353.786H1755.17V386.63H1506.43V386.438ZM1588.07 175.926H1529.1V227.401H1588.07V175.926ZM1660.48 95.4466H1695.24V283.871H1660.48V193.02H1629.36V160.56H1660.48V95.4466ZM1717.14 95.0625H1752.67V285.408H1717.14V95.0625Z" fill="#595757"/>
<path d="M1867.92 126.38V94.6875H1907.49V126.38H1978.55V158.072H1903.07L1984.7 340.542L1953.97 354.179L1887.7 203.401L1822.21 356.676L1790.71 342.655L1872.34 158.072H1793.78V126.38H1867.92ZM2023.5 245.85H1966.26V213.005H2023.5V94.8796H2060.38V392.018H2023.5V245.657V245.85Z" fill="#595757"/>
<path d="M2253.6 353.402H2216.73V146.538H2102.63V113.502H2253.41V353.402H2253.6ZM2328.13 95.0625H2365.01V392.201H2328.13V95.0625Z" fill="#595757"/>
<path d="M2582.62 172.879C2582.62 183.443 2580.51 193.239 2576.47 202.266C2572.06 211.486 2566.29 219.361 2558.99 226.083C2551.89 232.998 2543.63 238.376 2534.02 242.218C2524.23 246.251 2513.86 248.364 2502.91 248.364C2491.96 248.364 2481.78 246.251 2472.18 242.218C2462.38 238.376 2453.74 232.998 2446.82 226.083C2439.33 219.169 2433.95 211.486 2429.73 202.266C2425.31 193.431 2423.2 183.443 2423.2 172.879C2423.2 162.315 2425.31 152.711 2429.73 143.108C2433.76 134.272 2439.33 126.013 2446.82 119.29C2453.55 112.568 2462.19 106.998 2472.18 102.964C2481.78 99.1227 2491.96 97.202 2502.91 97.202C2513.86 97.202 2524.04 99.3148 2534.02 102.964C2543.63 106.998 2551.7 112.568 2558.99 119.29C2566.1 126.013 2571.86 134.272 2576.47 143.108C2580.51 152.711 2582.62 162.507 2582.62 172.879ZM2443.37 261.041H2479.48V288.892H2639.86V261.041H2675.97V386.657H2443.17V261.041H2443.37ZM2547.09 172.879C2547.09 160.97 2542.67 150.598 2534.41 141.763C2525.57 133.312 2515.39 128.702 2503.29 128.702C2491.19 128.702 2480.82 133.12 2472.18 141.763C2463.34 150.598 2459.31 160.97 2459.31 172.879C2459.31 184.788 2463.34 195.352 2472.18 203.611C2480.82 212.446 2491 216.672 2503.29 216.672C2515.59 216.672 2525.57 212.638 2534.41 203.611C2542.67 195.352 2547.09 185.172 2547.09 172.879ZM2639.86 319.047H2479.48V355.925H2639.86V319.047ZM2592.03 156.937H2639.09V95.2812H2675.97V252.59H2639.09V189.397H2592.03V156.937Z" fill="#595757"/>
<path d="M2727.06 283.132H3000V315.977H2881.87V392.422H2844.61V315.977H2726.87V283.132H2727.06ZM2785.45 137.732H2941.8V100.086H2978.29V243.181H2748.96V100.086H2785.45V137.732ZM2941.8 169.809H2785.45V210.72H2941.8V169.809Z" fill="#595757"/>
</svg>
