<svg width="3000" height="600" viewBox="0 0 3000 600" fill="none" xmlns="http://www.w3.org/2000/svg">
<g clip-path="url(#clip0_1621_8287)">
<path d="M639.658 223.687C659.84 223.687 676.201 207.256 676.201 186.986C676.201 166.716 659.84 150.285 639.658 150.285H530.01V223.708H639.658V223.687Z" fill="#F39800"/>
<path d="M173.629 223.687C148.402 223.687 127.941 244.237 127.941 269.574C127.941 294.911 148.402 315.46 173.629 315.46H283.277C358.981 315.46 420.342 377.088 420.342 453.121C420.342 529.153 358.981 590.781 283.277 590.781H36.5422C16.3602 590.781 0 574.35 0 554.08C0 533.811 16.3602 517.38 36.5422 517.38H283.277C318.595 517.38 347.236 488.614 347.236 453.142C347.236 417.671 318.595 388.905 283.277 388.905H173.629C108.016 388.905 54.8347 335.493 54.8347 269.595C54.8347 203.698 108.016 150.285 173.629 150.285H347.258C327.076 150.285 310.716 166.716 310.716 186.986C310.716 207.256 327.076 223.687 347.258 223.687H173.629Z" fill="#E60012"/>
<path d="M530.012 40.1578C530.012 19.8883 513.652 3.45703 493.47 3.45703C473.288 3.45703 456.928 19.8883 456.928 40.1578V150.282H530.033V40.1578H530.012Z" fill="#F39800"/>
<path d="M712.767 352.199C712.767 331.93 729.127 315.498 749.309 315.498C769.491 315.498 785.851 331.93 785.851 352.199V76.8568H913.791C933.973 76.8568 950.334 93.288 950.334 113.558C950.334 133.827 933.973 150.258 913.791 150.258H858.957C838.775 150.258 822.415 166.69 822.415 186.959C822.415 207.229 838.775 223.66 858.957 223.66H913.791C974.359 223.66 1023.44 174.345 1023.44 113.536C1023.44 52.7274 974.38 3.43359 913.813 3.43359H749.33C729.148 3.43359 712.788 19.8649 712.788 40.1344V352.178L712.767 352.199Z" fill="#0054A6"/>
<path d="M785.874 352.203C785.874 372.473 769.513 388.904 749.331 388.904C729.15 388.904 712.789 372.473 712.789 352.203L713.09 434.812C713.09 485.508 672.168 526.586 621.713 526.586C571.258 526.586 530.336 485.486 530.336 434.812L529.993 352.246C529.993 372.516 513.632 388.947 493.472 388.947C473.311 388.947 456.951 372.516 456.951 352.246V434.812C456.951 526.047 530.594 600.009 621.434 600.009C712.274 600.009 785.917 526.047 785.917 434.812V352.203H785.874Z" fill="#1BB8CE"/>
<path d="M456.948 223.688H529.99V352.183C529.99 331.914 513.629 315.483 493.447 315.483C473.266 315.483 456.905 331.914 456.905 352.183L456.97 223.688H456.948Z" fill="#F39800"/>
<path d="M530.011 150.262H456.905V223.685H530.011V150.262Z" fill="#980030"/>
<path d="M456.949 223.687H347.237C367.419 223.687 383.779 207.256 383.779 186.986C383.779 166.716 367.419 150.285 347.237 150.285H456.885V223.708" fill="#F39800"/>
<path d="M493.447 388.917C513.629 388.917 529.99 372.486 529.99 352.216C529.99 331.947 513.629 315.516 493.447 315.516C473.266 315.516 456.905 331.947 456.905 352.216C456.905 372.486 473.266 388.917 493.447 388.917Z" fill="#002063"/>
<path d="M749.332 388.894C769.513 388.894 785.874 372.462 785.874 352.193C785.874 331.924 769.513 315.492 749.332 315.492C729.15 315.492 712.789 331.924 712.789 352.193C712.789 372.462 729.15 388.894 749.332 388.894Z" fill="#002063"/>
<path d="M347.237 223.687C367.419 223.687 383.78 207.255 383.78 186.986C383.78 166.717 367.419 150.285 347.237 150.285C327.056 150.285 310.695 166.717 310.695 186.986C310.695 207.255 327.056 223.687 347.237 223.687Z" fill="#980030"/>
<path d="M2133.55 211.535C2130.93 211.535 2128.31 211.125 2125.78 210.306C2095.83 200.753 2068.2 179.751 2043.61 147.902L2041.92 145.702L2040.22 147.902C2015.59 179.815 1988.22 200.796 1958.85 210.263C1956.29 211.082 1953.65 211.513 1951.01 211.513C1944.4 211.513 1937.81 208.796 1932.98 204.052C1928 199.158 1925.25 192.667 1925.25 185.745V184.926C1925.25 173.734 1932.53 163.966 1943.33 160.581C1982.49 148.354 2010.23 117.325 2015.74 79.632L2016.11 77.1522H1951.72C1937.1 77.1522 1925.2 65.4433 1925.2 51.039C1925.2 36.6347 1937.1 24.9258 1951.72 24.9258H2132.86C2147.48 24.9258 2159.38 36.6347 2159.38 51.039C2159.38 65.4433 2147.48 77.1522 2132.86 77.1522H2068.5L2068.86 79.632C2074.38 117.325 2102.12 148.354 2141.26 160.581C2152.08 163.966 2159.34 173.756 2159.36 184.947V185.767C2159.36 192.689 2156.61 199.201 2151.63 204.096C2146.8 208.84 2140.21 211.557 2133.57 211.557L2133.55 211.535Z" fill="#002063"/>
<path d="M1255.79 370.539C1218.77 370.539 1188.65 340.285 1188.65 303.11C1188.65 265.935 1218.77 235.682 1255.79 235.682H1433.97C1470.98 235.682 1501.11 265.935 1501.11 303.11C1501.11 340.285 1470.98 370.539 1433.97 370.539H1255.79ZM1269.46 286.657C1261.09 286.657 1254.01 294.183 1254.01 303.11C1254.01 312.037 1261.09 319.563 1269.46 319.563H1420.46C1428.84 319.563 1435.92 312.037 1435.92 303.11C1435.92 294.183 1428.84 286.657 1420.46 286.657H1269.46Z" fill="#002063"/>
<path d="M2362.23 370.864C2331.89 370.864 2307.23 346.087 2307.23 315.618C2307.23 285.149 2331.92 260.352 2362.23 260.352H2569.05C2599.39 260.352 2624.06 285.149 2624.06 315.618C2624.06 346.087 2599.37 370.864 2569.05 370.864H2362.23ZM2368.44 306.67C2365.95 306.67 2363.56 307.726 2361.87 309.581C2360.19 311.414 2359.35 313.915 2359.57 316.416C2359.98 320.966 2364.08 324.546 2368.91 324.546H2563.21C2568.04 324.546 2572.15 320.966 2572.55 316.416C2572.77 313.915 2571.93 311.414 2570.26 309.581C2568.58 307.726 2566.18 306.67 2563.69 306.67H2368.42H2368.44Z" fill="#002063"/>
<path d="M2361.5 183.523C2333.39 183.523 2310.55 160.558 2310.55 132.353C2310.55 104.149 2333.42 81.1836 2361.5 81.1836H2569.76C2597.86 81.1836 2620.71 104.149 2620.71 132.353C2620.71 160.558 2597.84 183.523 2569.76 183.523H2361.5ZM2367.7 124.332C2363.3 124.332 2359.72 127.933 2359.72 132.353C2359.72 136.774 2363.3 140.375 2367.7 140.375H2564.41C2568.81 140.375 2572.4 136.774 2572.4 132.353C2572.4 127.933 2568.81 124.332 2564.41 124.332H2367.7Z" fill="#002063"/>
<path d="M1462.11 212.142C1446.55 212.142 1433.88 199.42 1433.88 183.787V38.4281C1433.88 22.7946 1446.55 10.0723 1462.11 10.0723C1477.68 10.0723 1490.35 22.7946 1490.35 38.4281V93.1774H1506.19C1520.68 93.1774 1532.49 105.016 1532.49 119.592C1532.49 134.169 1520.71 146.008 1506.19 146.008H1490.35V183.808C1490.35 199.442 1477.68 212.164 1462.11 212.164V212.142Z" fill="#002063"/>
<path d="M1604.7 370.86C1590.79 370.86 1579.47 359.496 1579.47 345.523V248.79C1579.47 233.329 1591.99 220.758 1607.38 220.758C1622.78 220.758 1635.3 233.329 1635.3 248.79V254.569H1818.41V248.79C1818.41 233.329 1830.93 220.758 1846.33 220.758C1861.72 220.758 1874.24 233.329 1874.24 248.79V345.523C1874.24 359.496 1862.92 370.86 1849.01 370.86H1604.7ZM1635.3 319.906H1818.41V300.003H1635.3V319.906Z" fill="#002063"/>
<path d="M2803.94 282.001C2788.31 282.001 2775.6 269.236 2775.6 253.538V211.727H2693.04C2677.5 211.727 2664.85 200.492 2664.85 186.67C2664.85 172.848 2677.5 161.613 2693.04 161.613H2897.22C2912.77 161.613 2925.41 172.848 2925.41 186.67C2925.41 200.492 2912.77 211.727 2897.22 211.727H2832.28V253.538C2832.28 269.236 2819.57 282.001 2803.94 282.001Z" fill="#002063"/>
<path d="M2971.31 300.658C2958.07 300.658 2946.73 291.041 2943.72 277.262L2943.36 275.558H2896.98C2885.76 275.558 2876.61 264.324 2876.61 250.502C2876.61 236.68 2885.76 225.445 2896.98 225.445H2942.97V40.3238C2942.97 23.6337 2955.68 10.0488 2971.31 10.0488C2986.94 10.0488 2999.65 23.6337 2999.65 40.3238V270.361C2999.65 287.052 2986.94 300.636 2971.31 300.636V300.658Z" fill="#002063"/>
<path d="M1364.6 208.22C1362.17 208.22 1359.75 207.875 1357.38 207.229C1329.62 199.487 1305.32 183.746 1283.12 159.078L1281.53 157.309L1279.94 159.078C1257.7 183.768 1233.72 199.509 1206.6 207.164C1204.19 207.832 1201.75 208.177 1199.3 208.177C1192.26 208.177 1185.58 205.417 1180.49 200.371C1175.3 195.261 1172.44 188.404 1172.44 181.072V178.636C1172.44 166.733 1180.3 156.274 1192 152.63C1220.86 143.617 1243.76 120.716 1253.25 91.3687L1254.18 88.5439H1197.28C1182.66 88.5439 1170.79 76.5978 1170.79 61.9347C1170.79 47.2716 1182.68 35.3255 1197.28 35.3255H1255.89V28.1018C1255.89 13.6544 1267.6 1.90234 1281.98 1.90234C1296.37 1.90234 1308.07 13.6544 1308.07 28.1018V35.3255H1365.82C1380.44 35.3255 1392.32 47.2716 1392.32 61.9347C1392.32 76.5978 1380.42 88.5439 1365.82 88.5439H1309.78L1310.71 91.3687C1320.2 120.716 1343.08 143.617 1371.96 152.63C1383.66 156.274 1391.52 166.733 1391.52 178.636V181.137C1391.52 196.08 1379.46 208.22 1364.64 208.22H1364.6Z" fill="#002063"/>
<path d="M2325.56 66.9739C2314.07 66.9739 2304.73 57.5938 2304.73 46.0574C2304.73 34.521 2314.07 25.141 2325.56 25.141H2440.59V22.9846C2440.68 10.3054 2451.03 -0.0234375 2463.65 -0.0234375H2467.6C2480.23 -0.0234375 2490.58 10.3054 2490.66 22.9846V25.141H2605.72C2617.21 25.141 2626.55 34.521 2626.55 46.0574C2626.55 57.5938 2617.21 66.9739 2605.72 66.9739H2325.56Z" fill="#002063"/>
<path d="M2321.33 244.75C2308.47 244.75 2298.01 234.248 2298.01 221.332C2298.01 208.415 2308.47 197.914 2321.33 197.914H2609.95C2622.81 197.914 2633.27 208.415 2633.27 221.332C2633.27 234.248 2622.81 244.75 2609.95 244.75H2321.33Z" fill="#002063"/>
<path d="M1846.58 212.163C1831.04 212.163 1818.39 199.462 1818.39 183.85V138.136H1765.04L1764.54 139.602C1752.65 174.427 1720.06 197.823 1683.45 197.823H1639.2C1592.5 197.823 1553.11 160.691 1551.39 115.063C1550.51 91.451 1558.99 69.0898 1575.31 52.0763C1591.64 35.0413 1613.57 25.6612 1637.03 25.6612H1681.45C1718.92 25.6612 1752.28 49.0574 1764.46 83.8822L1764.97 85.327H1818.41V38.7502C1818.41 23.1383 1831.06 10.4375 1846.6 10.4375C1862.15 10.4375 1874.79 23.1383 1874.79 38.7502V183.871C1874.79 199.483 1862.15 212.184 1846.6 212.184L1846.58 212.163ZM1643.28 79.8715C1634.56 79.8715 1626.15 83.5372 1620.18 89.9415C1614.12 96.4105 1611.1 104.885 1611.63 113.769C1612.69 130.481 1627.09 143.57 1644.44 143.57H1675.25C1692.6 143.57 1707 130.481 1708.06 113.769C1708.61 104.885 1705.59 96.4105 1699.51 89.9415C1693.54 83.5588 1685.1 79.8715 1676.41 79.8715H1643.28Z" fill="#002063"/>
<path d="M2219.82 261.99C2204.19 261.99 2191.48 249.224 2191.48 233.526V38.7878C2191.48 23.0897 2204.19 10.3242 2219.82 10.3242C2235.45 10.3242 2248.16 23.0897 2248.16 38.7878V233.526C2248.16 249.224 2235.45 261.99 2219.82 261.99Z" fill="#002063"/>
<path d="M1977.91 370.867C1961.06 370.867 1947.36 357.088 1947.36 340.182V263.913C1947.36 249.444 1959.08 237.648 1973.49 237.648H1977.89C1992.3 237.648 2004.04 249.422 2004.04 263.913V321.228H2228.71C2242.34 321.228 2253.42 332.376 2253.42 346.069C2253.42 359.762 2242.32 370.888 2228.71 370.888H1977.91V370.867Z" fill="#002063"/>
<path d="M2724.5 370.867C2707.64 370.867 2693.94 357.088 2693.94 340.182V263.913C2693.94 249.444 2705.67 237.648 2720.07 237.648H2724.47C2738.88 237.648 2750.6 249.422 2750.6 263.913V321.228H2975.27C2988.9 321.228 2999.98 332.376 2999.98 346.069C2999.98 359.762 2988.88 370.888 2975.27 370.888H2724.47L2724.5 370.867Z" fill="#002063"/>
<path d="M2745.15 143.951C2711.94 143.951 2684.93 116.824 2684.93 83.4656C2684.93 50.1072 2711.94 22.9805 2745.15 22.9805H2856.82C2890.03 22.9805 2917.04 50.1072 2917.04 83.4656C2917.04 116.824 2890.03 143.951 2856.82 143.951H2745.15ZM2753.24 72.7918C2747.23 72.7918 2742.36 77.7082 2742.36 83.7244C2742.36 89.7406 2747.25 94.657 2753.24 94.657H2848.25C2854.26 94.657 2859.13 89.7406 2859.13 83.7244C2859.13 77.7082 2854.24 72.7918 2848.25 72.7918H2753.24Z" fill="#002063"/>
<path d="M1768.34 523.082H1785L1776.71 498.004L1768.34 523.082Z" fill="#002063"/>
<path d="M1406.55 497.631C1404.32 496.1 1401.68 495.346 1398.63 495.346C1395.58 495.346 1392.94 496.1 1390.68 497.631C1388.43 499.162 1386.67 501.556 1385.42 504.834C1384.18 508.111 1383.56 512.359 1383.56 517.578C1383.56 522.796 1384.18 526.871 1385.42 530.041C1386.67 533.211 1388.43 535.54 1390.68 536.985C1392.94 538.451 1395.58 539.184 1398.63 539.184C1401.68 539.184 1404.34 538.451 1406.59 536.985C1408.83 535.518 1410.57 533.189 1411.79 530.02C1413.01 526.828 1413.61 522.688 1413.61 517.578C1413.61 512.467 1412.99 508.047 1411.77 504.79C1410.54 501.534 1408.8 499.141 1406.55 497.61V497.631Z" fill="#002063"/>
<path d="M1529.68 495.484H1517.18V514.719H1528.78C1532.17 514.719 1534.85 513.813 1536.83 511.98C1538.8 510.147 1539.79 507.797 1539.79 504.908C1539.79 502.018 1538.85 499.711 1536.94 498.029C1535.02 496.347 1532.6 495.506 1529.68 495.506V495.484Z" fill="#002063"/>
<path d="M1172.48 443.961V590.807H3000V443.961H1172.48ZM1281.64 545.74L1266.76 519.476L1257.46 530.732V542.225C1257.46 545.869 1254.52 548.823 1250.89 548.823C1247.26 548.823 1244.32 545.869 1244.32 542.225V492.392C1244.32 488.748 1247.26 485.794 1250.89 485.794C1254.52 485.794 1257.46 488.748 1257.46 492.392V514.646L1278.61 487.95C1279.7 486.57 1281.36 485.772 1283.1 485.772C1287.88 485.772 1290.55 491.292 1287.6 495.088L1275.82 510.182L1292.18 539.788C1294.41 543.842 1291.49 548.823 1286.9 548.823C1284.73 548.823 1282.71 547.659 1281.64 545.761V545.74ZM1423.85 534.635C1421.53 539.465 1418.21 543.174 1413.89 545.783C1409.58 548.392 1404.49 549.686 1398.6 549.686C1392.72 549.686 1387.55 548.392 1383.21 545.783C1378.87 543.195 1375.55 539.487 1373.18 534.656C1370.82 529.848 1369.64 524.112 1369.64 517.427C1369.64 510.743 1370.84 504.921 1373.23 500.069C1375.61 495.217 1378.98 491.465 1383.32 488.834C1387.65 486.204 1392.74 484.888 1398.6 484.888C1404.47 484.888 1409.49 486.182 1413.81 488.813C1418.12 491.422 1421.45 495.152 1423.81 500.026C1426.17 504.877 1427.35 510.678 1427.35 517.427C1427.35 524.177 1426.19 529.826 1423.85 534.656V534.635ZM1538.55 545.136L1529.85 524.522H1517.18V542.462C1517.18 545.956 1514.35 548.802 1510.87 548.802C1507.39 548.802 1504.56 545.956 1504.56 542.462V490.969C1504.56 488.101 1506.88 485.772 1509.73 485.772H1531.03C1536.03 485.772 1540.14 486.57 1543.31 488.166C1546.49 489.761 1548.83 491.983 1550.36 494.807C1551.86 497.632 1552.61 500.91 1552.61 504.597C1552.61 507.918 1552.09 510.699 1551.06 512.985C1550.03 515.271 1548.7 517.168 1547.03 518.678C1545.35 520.187 1543.55 521.416 1541.57 522.387L1549.52 540.371C1551.28 544.338 1548.38 548.802 1544.06 548.802C1541.66 548.802 1539.49 547.357 1538.57 545.136H1538.55ZM1669.24 548.802H1636.13C1633.27 548.802 1630.95 546.473 1630.95 543.605V490.947C1630.95 488.08 1633.27 485.751 1636.13 485.751H1668.78C1671.68 485.751 1674.04 488.123 1674.04 491.055V491.228C1674.04 494.139 1671.68 496.489 1668.78 496.489H1643.66V511.799H1664.77C1667.67 511.799 1670.03 514.171 1670.03 517.082C1670.03 519.993 1667.67 522.365 1664.77 522.365H1643.58V537.977L1669.24 538.02C1672.13 538.02 1674.47 540.392 1674.47 543.303V543.584C1674.47 546.495 1672.11 548.867 1669.21 548.867L1669.24 548.802ZM1791.81 544.813L1788.09 534.182H1765.49L1761.69 544.834C1760.85 547.206 1758.59 548.78 1756.1 548.78H1756C1751.9 548.78 1749.02 544.683 1750.41 540.802L1768.66 489.546C1769.48 487.26 1771.63 485.729 1774.05 485.729H1779.4C1781.82 485.729 1783.97 487.26 1784.79 489.546L1803.04 540.802C1804.41 544.683 1801.56 548.78 1797.46 548.78C1794.94 548.78 1792.69 547.185 1791.85 544.791L1791.81 544.813ZM2995.81 586.602H1876.79V448.187H2995.81V586.602Z" fill="#002063"/>
<path d="M2024.91 549.668C2021.93 549.668 2019.03 549.302 2016.2 548.526C2013.36 547.771 2010.78 546.65 2008.47 545.14C2006.15 543.652 2004.24 541.776 2002.71 539.534C2001.19 537.291 2000.18 534.747 2002.28 532.137C2003.7 530.348 2006 530.412 2006 530.412C2008.81 530.412 2009.67 532.31 2009.97 533.194C2010.53 534.811 2011.36 536.213 2012.48 537.399C2013.94 538.951 2015.74 540.094 2017.89 540.892C2020.04 541.69 2022.36 542.078 2024.87 542.078C2027.64 542.078 2030.15 541.69 2032.36 540.935C2034.57 540.159 2036.33 539.059 2037.62 537.615C2038.91 536.17 2039.55 534.445 2039.55 532.396C2039.55 530.563 2039.13 529.011 2038.25 527.739C2037.39 526.466 2036.14 525.388 2034.53 524.547C2032.92 523.685 2030.99 523.016 2028.73 522.52L2016.84 519.825C2012.18 518.833 2008.51 517 2005.83 514.305C2003.14 511.609 2001.79 508.051 2001.77 503.609C2001.75 499.9 2002.71 496.644 2004.69 493.841C2006.66 491.059 2009.39 488.881 2012.82 487.329C2016.26 485.776 2020.19 485 2024.59 485C2029.72 485 2034.02 485.863 2037.49 487.566C2040.97 489.291 2043.61 491.534 2045.42 494.337C2046 495.243 2046.47 496.17 2046.88 497.119C2048.14 500.159 2045.74 503.523 2042.45 503.523C2040.35 503.523 2038.63 502.078 2037.94 500.094C2037.56 498.951 2037 497.981 2036.29 497.14C2034.96 495.544 2033.29 494.423 2031.27 493.733C2029.25 493.043 2027.06 492.698 2024.65 492.698C2022.92 492.698 2021.26 492.914 2019.67 493.345C2018.08 493.776 2016.67 494.423 2015.47 495.264C2014.24 496.105 2013.3 497.14 2012.59 498.391C2011.88 499.62 2011.51 501.043 2011.51 502.639C2011.51 504.795 2012.24 506.542 2013.68 507.879C2015.12 509.216 2017.78 510.359 2021.67 511.329L2033.31 513.981C2036.63 514.671 2039.32 515.706 2041.38 517.065C2043.44 518.423 2045.01 519.954 2046.1 521.658C2047.2 523.361 2047.95 525.151 2048.36 527.005C2048.77 528.86 2048.96 530.606 2048.96 532.31C2048.96 535.566 2047.99 538.499 2046.04 541.151C2044.11 543.782 2041.34 545.873 2037.75 547.404C2034.17 548.957 2029.87 549.712 2024.87 549.712L2024.91 549.668Z" fill="#002063"/>
<path d="M2122.88 490.006C2122.88 487.655 2124.77 485.758 2127.11 485.758H2166.87C2169.21 485.758 2171.1 487.655 2171.1 490.006C2171.1 492.356 2169.21 494.254 2166.87 494.254H2152.14V544.087C2152.14 546.696 2150.04 548.787 2147.46 548.787C2144.86 548.787 2142.78 546.674 2142.78 544.087V494.254H2127.13C2124.79 494.254 2122.9 492.356 2122.9 490.006H2122.88Z" fill="#002063"/>
<path d="M2238.82 542.858L2258.25 488.777C2258.89 486.965 2260.61 485.758 2262.54 485.758H2266.38C2268.29 485.758 2270.01 486.965 2270.68 488.777L2290.09 542.858C2291.12 545.747 2288.99 548.787 2285.94 548.787C2284.07 548.787 2282.42 547.623 2281.8 545.855L2276.95 532.27H2252.08L2247.19 545.876C2246.57 547.623 2244.89 548.809 2243.05 548.809H2243C2239.95 548.809 2237.83 545.769 2238.86 542.879L2238.82 542.858ZM2254.36 523.817H2274.5L2264.43 494.836L2254.36 523.817Z" fill="#002063"/>
<path d="M2410.58 548.786C2408.8 548.786 2407.17 547.707 2406.48 546.047L2396.47 522.392H2380.76V544.279C2380.76 546.759 2378.76 548.764 2376.29 548.764H2375.93C2373.46 548.764 2371.46 546.759 2371.46 544.279V490.176C2371.46 487.718 2373.44 485.734 2375.88 485.734H2396.37C2401.03 485.734 2404.89 486.446 2407.96 487.891C2411.03 489.335 2413.31 491.384 2414.81 494.015C2416.31 496.667 2417.06 499.794 2417.06 503.395C2417.06 506.802 2416.48 509.627 2415.35 511.891C2414.21 514.155 2412.73 516.009 2410.92 517.433C2409.12 518.856 2407.21 519.977 2405.21 520.796L2414.64 542.511C2415.93 545.465 2413.76 548.786 2410.56 548.786H2410.58ZM2393.88 514.866C2398.26 514.866 2401.63 513.918 2404.03 512.02C2406.44 510.123 2407.64 507.384 2407.64 503.848C2407.64 500.311 2406.54 497.724 2404.35 495.912C2402.16 494.101 2399.2 493.217 2395.49 493.217H2380.78V514.888H2393.9L2393.88 514.866Z" fill="#002063"/>
<path d="M2491.8 490.006C2491.8 487.655 2493.69 485.758 2496.03 485.758H2535.79C2538.13 485.758 2540.02 487.655 2540.02 490.006C2540.02 492.356 2538.13 494.254 2535.79 494.254H2521.07V544.087C2521.07 546.696 2518.96 548.787 2516.39 548.787C2513.79 548.787 2511.71 546.674 2511.71 544.087V494.254H2496.05C2493.71 494.254 2491.82 492.356 2491.82 490.006H2491.8Z" fill="#002063"/>
<path d="M2742.6 526.381C2742.6 531.298 2741.78 535.481 2740.17 538.953C2738.56 542.424 2736 545.077 2732.55 546.91C2729.09 548.742 2724.58 549.648 2719.02 549.648C2713.46 549.648 2708.82 548.721 2705.39 546.866C2701.95 545.012 2699.44 542.295 2697.85 538.716C2696.26 535.136 2695.49 530.78 2695.49 525.627V490.457C2695.49 487.848 2697.59 485.734 2700.19 485.734H2700.36C2702.96 485.734 2705.07 487.848 2705.07 490.457V526.791C2705.07 531.794 2706.29 535.503 2708.74 537.939C2711.18 540.376 2714.6 541.583 2719 541.583C2721.92 541.583 2724.45 541.044 2726.58 539.988C2728.7 538.931 2730.34 537.292 2731.45 535.093C2732.59 532.893 2733.15 530.133 2733.15 526.791V490.457C2733.15 487.848 2735.25 485.734 2737.85 485.734C2740.45 485.734 2742.55 487.848 2742.55 490.457V526.36L2742.6 526.381Z" fill="#002063"/>
<path d="M2824.93 544.044V490.092C2824.93 487.699 2826.87 485.758 2829.25 485.758H2846.68C2851.17 485.758 2855.19 486.534 2858.73 488.065C2862.27 489.596 2865.06 491.86 2867.1 494.858C2869.14 497.855 2870.15 501.521 2870.15 505.898C2870.15 510.275 2869.23 513.661 2867.36 516.593C2865.49 519.548 2862.89 521.812 2859.54 523.364C2856.19 524.938 2852.33 525.715 2847.93 525.715H2834.38V544.022C2834.38 546.653 2832.26 548.766 2829.66 548.766C2827.04 548.766 2824.93 546.631 2824.93 544.022V544.044ZM2834.36 518.06H2847.69C2851.69 518.06 2854.95 516.917 2857.46 514.588C2859.97 512.281 2861.24 509.197 2861.24 505.359C2861.24 501.521 2859.95 498.48 2857.33 496.41C2854.73 494.34 2851.41 493.283 2847.35 493.283H2834.36V518.038V518.06Z" fill="#002063"/>
</g>
<defs>
<clipPath id="clip0_1621_8287">
<rect width="3000" height="600" fill="white"/>
</clipPath>
</defs>
</svg>
