<svg width="3000" height="555" viewBox="0 0 3000 555" fill="none" xmlns="http://www.w3.org/2000/svg">
<g clip-path="url(#clip0_1621_8368)">
<path d="M1463.37 290.274C1463.37 290.274 924.876 211.458 204.89 312.854L186.98 380.681C434.031 315.859 955.383 253.528 1463.37 290.274Z" fill="url(#paint0_linear_1621_8368)"/>
<path d="M1463.37 290.277C1463.37 290.277 846.982 187.593 19.9663 310.711L0 380.683C283.299 313.458 882.287 237.389 1463.37 290.277Z" fill="url(#paint1_linear_1621_8368)"/>
<path d="M251.681 200.909C256.48 182.88 263.25 167.425 287.501 167.425C311.752 167.425 310.295 182.88 305.496 200.909C299.926 221.515 292.985 236.11 269.163 236.11C245.34 236.11 246.111 221.515 251.681 200.909ZM287.415 199.879C291.1 186.142 292.214 179.188 284.416 179.188C276.618 179.188 274.047 186.142 270.448 199.879C265.049 219.969 265.563 224.348 272.333 224.348C279.103 224.348 281.931 219.969 287.415 199.879ZM869.951 172.062C869.951 171.461 869.779 170.86 869.437 170.345C868.665 169.314 867.037 168.713 865.323 168.713H853.412L851.441 176.44H851.184C850.242 170.345 845.271 167.425 838.759 167.425C819.564 167.425 814.337 185.799 810.566 200.394C806.624 215.333 800.626 233.878 820.849 233.878C826.933 233.878 832.846 231.217 836.959 226.151H837.216L833.789 238.772C832.075 245.469 828.733 249.762 824.105 249.762C821.278 249.762 819.307 248.817 818.621 247.1C817.85 245.555 818.107 243.151 818.878 240.403H800.883C797.027 256.544 807.738 260.064 821.449 260.064C846.728 260.064 851.27 242.035 852.641 237.484L869.951 172.663C869.951 172.663 869.951 172.148 869.951 171.976V172.062ZM843.729 201.596C839.959 215.591 837.216 222.545 830.532 222.545C821.62 222.545 825.905 209.924 827.533 203.829C832.932 183.738 835.417 178.844 842.358 178.844C849.299 178.844 847.671 187.087 843.729 201.596ZM108.232 167.425C101.548 167.425 96.4926 169.4 91.2654 174.981H91.0083L99.2348 144.33C99.2348 144.33 99.3205 143.815 99.3205 143.557C99.3205 142.956 99.1491 142.441 98.8063 141.926C98.0351 140.896 96.4926 140.295 94.6931 140.295H76.355C76.355 140.295 75.8408 142.184 75.7551 142.441C77.8974 144.244 79.0114 146.82 79.0114 149.911C79.0114 150.941 78.84 152.057 78.4973 153.173L59.1308 226.065L56.7314 234.651H66.4147C70.1851 234.651 74.7268 232.247 75.5837 229.671L76.1836 227.353H76.4407C78.0688 233.792 82.6105 235.939 89.6373 235.939C108.661 235.939 113.631 214.732 117.316 201.167C120.915 187.773 126.999 167.254 108.404 167.254L108.232 167.425ZM99.3205 201.167C94.8645 217.737 91.6939 224.692 85.0956 224.692C78.84 224.692 79.6113 217.823 84.0673 201.167C87.5807 187.945 89.8943 178.758 97.4353 178.758C105.405 178.758 102.748 187.859 99.3205 201.167ZM164.275 167.425C139.939 167.425 133.255 182.88 128.456 200.909C122.8 221.515 122.2 236.11 145.937 236.11C154.592 236.11 161.704 233.706 167.017 229.671C171.045 226.752 174.216 222.803 176.444 218.167C176.701 217.566 176.958 217.05 176.958 216.535C176.958 216.278 176.958 216.106 176.958 215.848C176.958 215.247 176.786 214.646 176.444 214.217C175.672 213.101 174.13 212.586 172.33 212.586H159.991C158.534 217.995 155.535 224.348 149.022 224.348C140.967 224.348 143.795 212.586 145.937 204.687H178.757C179.7 204.687 181.328 203.914 181.842 202.627C187.583 182.45 188.183 167.425 164.19 167.425H164.275ZM165.646 194.384H148.851C150.393 188.718 152.878 178.844 161.362 178.844C169.845 178.844 167.36 187.945 165.732 194.384H165.646ZM548.605 167.425C524.354 167.425 517.584 182.88 512.786 200.909C507.13 221.515 506.53 236.11 530.267 236.11C538.836 236.11 546.034 233.706 551.347 229.671C555.375 226.752 558.545 222.803 560.859 218.167C561.116 217.566 561.287 217.05 561.287 216.535C561.287 216.278 561.373 216.106 561.373 215.848C561.373 215.247 561.202 214.646 560.859 214.217C560.088 213.101 558.545 212.586 556.746 212.586H544.32C542.778 217.995 539.864 224.348 533.352 224.348C525.211 224.348 528.124 212.586 530.267 204.687H563.087C564.03 204.687 565.743 203.914 566.086 202.627C571.828 182.45 572.513 167.425 548.519 167.425H548.605ZM549.976 194.384H533.095C534.637 188.718 537.036 178.844 545.606 178.844C554.175 178.844 551.604 187.945 549.976 194.384ZM722.903 228.984L737.385 175.153L737.985 172.834C737.985 172.834 738.07 172.319 738.07 172.148C738.07 171.461 737.899 170.946 737.556 170.43C736.699 169.4 735.157 168.799 733.357 168.799H715.019C715.019 168.799 714.505 170.688 714.419 171.031C716.476 172.749 717.676 175.41 717.59 178.501C717.59 179.531 717.419 180.733 717.076 181.935L702.765 234.908H713.22C717.59 234.908 721.875 232.247 722.817 229.07L722.903 228.984ZM743.983 149.31L744.926 146.734L745.526 144.416C745.526 144.416 745.611 143.901 745.611 143.643C745.611 143.042 745.44 142.527 745.097 142.012C744.326 140.982 742.784 140.381 740.984 140.381H722.646C722.646 140.381 722.046 142.27 721.96 142.527C724.103 144.33 724.96 147.249 724.874 150.34C724.874 151.456 724.702 152.572 724.445 153.774L723.931 155.234H734.386C738.67 155.234 743.041 152.486 743.898 149.31H743.983ZM490.677 228.984L512.7 146.734L513.3 144.416C513.3 144.416 513.385 143.901 513.385 143.643C513.385 143.042 513.214 142.527 512.871 142.012C512.014 140.982 510.558 140.381 508.758 140.381H490.42C490.42 140.381 489.82 142.27 489.734 142.527C491.877 144.33 492.991 146.906 492.905 149.997C492.905 151.113 492.734 152.229 492.391 153.431L470.625 234.823H480.994C485.278 234.823 489.649 232.161 490.506 228.984H490.677ZM612.36 167.425C605.247 167.425 599.078 168.627 593.936 171.718C588.966 174.723 585.024 179.875 582.882 187.859H600.877C602.334 182.622 604.219 177.814 610.56 177.814C616.902 177.814 616.902 181.849 615.359 187.43L614.074 192.495C597.021 192.238 579.968 193.182 574.056 214.99C570.971 226.495 573.113 236.025 585.967 236.025C593.85 236.025 600.106 232.762 605.847 225.979H606.104L604.562 234.737H613.131C617.416 234.737 621.786 232.075 622.643 228.899C623.071 226.666 623.5 224.52 624.014 222.459L632.926 189.491C636.011 177.471 635.754 167.34 612.36 167.34V167.425ZM596.25 224.692C590.251 224.692 591.108 219.025 592.308 214.303C595.564 202.541 601.991 203.313 611.332 202.884C609.361 210.096 607.133 224.692 596.25 224.692ZM206.693 254.054L208.664 250.534L251.253 172.663C251.424 172.491 251.51 172.233 251.51 172.062C251.681 171.375 251.681 170.86 251.51 170.345C250.996 169.314 249.71 168.713 247.911 168.713H230.944C230.944 168.713 230.087 170.345 230.001 170.602C231.458 172.148 231.972 174.38 231.372 177.041C231.115 177.986 230.858 178.93 230.344 179.96L213.463 215.162H213.205L215.948 172.749C215.948 172.749 215.948 172.233 215.948 172.062C215.948 171.375 215.519 170.86 215.091 170.345C214.148 169.314 212.434 168.713 210.635 168.713H194.782C194.782 168.713 194.782 170.345 194.782 170.602C197.01 172.148 197.61 174.294 197.867 176.956C197.952 177.9 198.038 178.93 198.038 179.96V235.338L184.499 259.807H195.896C200.095 259.807 205.065 257.231 206.864 254.054H206.693ZM361.796 167.425C358.368 167.425 355.369 167.941 352.284 169.228C349.713 170.345 346.971 172.233 344.4 174.981L345 172.491C345 172.233 345.086 171.976 345.086 171.718C345.086 171.117 344.914 170.602 344.486 170.087C343.715 169.057 342.172 168.456 340.373 168.456H322.035C322.035 168.456 321.435 170.345 321.349 170.688C323.406 172.491 324.605 175.067 324.52 178.158C324.52 179.274 324.348 180.39 324.091 181.592L309.352 234.737H319.807C324.091 234.737 328.462 232.075 329.404 228.899L341.487 184.768C343.029 181.162 345.429 178.758 349.713 178.758C355.626 178.758 355.455 183.309 353.826 189.233L341.658 234.737H352.113C356.397 234.737 360.768 232.075 361.624 228.899L374.221 181.763C376.706 172.577 370.279 167.425 361.539 167.425H361.796ZM789.829 167.425C786.487 167.425 783.402 167.941 780.317 169.228C777.746 170.345 775.004 172.233 772.433 174.981L773.033 172.491C773.119 172.233 773.119 171.976 773.119 171.718C773.119 171.117 772.947 170.602 772.604 170.087C771.833 169.057 770.376 168.456 768.491 168.456H750.153C750.153 168.456 749.639 170.345 749.553 170.688C751.61 172.491 752.809 175.067 752.724 178.158C752.724 179.274 752.552 180.39 752.295 181.592L737.728 234.737H748.096C752.381 234.737 756.751 232.075 757.608 228.899L769.777 184.768C771.319 181.162 773.718 178.758 778.003 178.758C783.83 178.758 783.744 183.309 782.116 189.233L769.862 234.737H780.317C784.601 234.737 788.972 232.075 789.914 228.899L802.511 181.763C804.996 172.577 798.655 167.425 789.829 167.425ZM449.031 141.926C448.259 140.896 446.717 140.295 444.917 140.295H426.408C426.408 140.295 425.808 142.184 425.722 142.441C427.865 144.244 428.979 146.82 428.979 149.911C428.979 151.027 428.807 152.143 428.464 153.345L422.637 174.981H422.466C420.152 169.314 416.125 167.425 409.441 167.425C390.931 167.425 385.961 187.945 382.362 201.339C378.763 214.904 372.422 236.11 391.445 236.11C398.472 236.11 404.128 233.878 409.355 227.525H409.441L407.641 234.823H417.239C421.523 234.823 425.894 232.161 426.751 228.984L448.773 146.734L449.373 144.416C449.373 144.416 449.459 143.901 449.459 143.643C449.459 143.042 449.288 142.527 448.945 142.012L449.031 141.926ZM402.071 224.692C395.387 224.692 396.158 217.823 400.7 201.167C404.213 187.945 406.527 178.758 414.497 178.758C422.466 178.758 419.381 187.859 415.953 201.167C411.497 217.737 408.327 224.692 402.071 224.692ZM710.22 141.926C709.449 140.896 707.907 140.295 706.193 140.295H687.683C687.683 140.295 687.084 142.184 686.998 142.441C689.14 144.244 690.254 146.82 690.168 149.911C690.168 151.027 689.997 152.143 689.74 153.345L683.999 174.981H683.827C681.514 169.314 677.4 167.425 670.802 167.425C652.207 167.425 647.322 187.945 643.723 201.339C640.039 214.904 633.783 236.11 652.892 236.11C659.919 236.11 665.575 233.878 670.802 227.525L669.002 234.823H678.6C682.885 234.823 687.255 232.161 688.198 228.984L710.135 146.734L710.735 144.416C710.735 144.416 710.906 143.901 710.906 143.643C710.906 143.042 710.735 142.527 710.306 142.012L710.22 141.926ZM663.261 224.692C656.577 224.692 657.348 217.823 661.804 201.167C665.318 187.945 667.631 178.758 675.601 178.758C683.142 178.758 680.571 187.859 677.058 201.167C672.602 217.737 669.517 224.692 663.175 224.692H663.261ZM1203.29 201.081C1208.09 182.965 1214.86 167.597 1239.11 167.597C1263.36 167.597 1261.91 183.051 1257.11 201.081C1251.54 221.772 1244.6 236.282 1220.77 236.282C1196.95 236.282 1197.72 221.772 1203.29 201.081ZM1239.03 200.051C1242.63 186.314 1243.83 179.359 1235.94 179.359C1228.06 179.359 1225.66 186.314 1222.06 200.051C1216.66 220.227 1217.18 224.434 1223.95 224.434C1230.72 224.434 1233.54 220.227 1239.03 200.051ZM1304.92 201.081C1309.72 182.965 1316.49 167.597 1340.74 167.597C1365 167.597 1363.54 183.051 1358.74 201.081C1353.08 221.772 1346.14 236.282 1322.41 236.282C1298.67 236.282 1299.35 221.772 1304.92 201.081ZM1340.57 200.051C1344.26 186.314 1345.46 179.359 1337.57 179.359C1329.69 179.359 1327.29 186.314 1323.61 200.051C1318.21 220.227 1318.72 224.434 1325.49 224.434C1332.26 224.434 1335.09 220.227 1340.57 200.051ZM977.923 167.597C953.672 167.597 946.902 183.051 942.104 201.081C936.448 221.772 935.762 236.282 959.585 236.282C968.154 236.282 975.352 233.964 980.665 229.929C984.693 227.01 987.863 222.974 990.091 218.424C990.348 217.737 990.52 217.222 990.605 216.879C990.605 216.621 990.605 216.278 990.605 216.106C990.605 215.505 990.434 214.99 990.091 214.475C989.32 213.53 987.778 212.843 985.978 212.843H973.553C972.096 218.424 969.097 224.606 962.584 224.606C954.443 224.606 957.357 212.843 959.499 205.03H992.405C993.262 205.03 995.062 204.258 995.404 202.884C1001.15 182.794 1001.83 167.683 977.837 167.683L977.923 167.597ZM979.294 194.556H962.413C963.955 188.975 966.44 179.016 974.924 179.016C983.407 179.016 981.008 188.203 979.38 194.556H979.294ZM1282.56 229.07L1304.5 146.906L1305.1 144.502C1305.1 144.502 1305.18 143.987 1305.18 143.815C1305.18 143.214 1305.01 142.613 1304.67 142.184C1303.9 141.153 1302.35 140.552 1300.55 140.552H1282.22C1282.22 140.552 1281.62 142.441 1281.53 142.785C1283.67 144.502 1284.79 147.163 1284.7 150.254C1284.7 151.285 1284.53 152.486 1284.27 153.688L1262.51 235.08H1272.96C1277.25 235.08 1281.62 232.419 1282.56 229.156V229.07ZM1448.29 254.226L1450.17 250.62L1492.85 172.834C1492.85 172.834 1493.02 172.405 1493.1 172.148C1493.28 171.547 1493.28 170.946 1493.1 170.516C1492.59 169.486 1491.31 168.885 1489.51 168.885H1472.54C1472.54 168.885 1471.77 170.516 1471.6 170.774C1473.05 172.319 1473.57 174.552 1472.97 177.213C1472.71 178.158 1472.37 179.102 1471.94 180.132L1455.06 215.333H1454.8L1457.54 172.92C1457.54 172.92 1457.54 172.405 1457.54 172.148C1457.37 171.547 1457.11 170.946 1456.69 170.516C1455.66 169.486 1454.03 168.885 1452.23 168.885H1436.29C1436.29 168.885 1436.29 170.516 1436.29 170.774C1438.52 172.319 1439.12 174.466 1439.38 177.127C1439.38 178.072 1439.55 179.102 1439.55 180.132V235.509L1425.92 259.893H1437.4C1441.6 259.893 1446.57 257.317 1448.46 254.226H1448.29ZM1182.64 167.511C1179.21 167.511 1176.21 168.026 1173.22 169.4C1170.64 170.516 1167.9 172.405 1165.25 175.238V175.067L1165.93 172.749C1165.93 172.491 1166.02 172.233 1166.1 171.976C1166.1 171.375 1165.93 170.774 1165.5 170.259C1164.73 169.228 1163.19 168.627 1161.39 168.627H1143.05C1143.05 168.627 1142.54 170.516 1142.37 170.774C1144.42 172.577 1145.62 175.153 1145.62 178.243C1145.62 179.359 1145.45 180.476 1145.19 181.678L1130.54 234.823H1141C1145.28 234.823 1149.65 232.161 1150.51 228.899L1162.68 184.768C1164.3 181.162 1166.62 178.758 1170.9 178.758C1176.81 178.758 1176.73 183.309 1175.02 189.233L1162.85 234.737H1173.3C1177.59 234.737 1181.87 232.075 1182.81 228.813L1195.41 181.763C1197.9 172.577 1191.55 167.34 1182.73 167.34L1182.64 167.511ZM941.932 176.183C942.618 173.693 943.389 170.602 943.818 168.799H934.306C934.306 168.799 938.505 153.259 938.762 152.487C938.933 151.714 938.076 150.684 937.219 150.941C936.362 151.285 918.71 158.325 918.71 158.325L915.882 168.799H908.512C908.512 168.799 906.37 176.87 906.027 177.986C905.77 179.188 906.627 180.132 907.484 180.132H912.883L902 220.828C900.886 224.949 900.2 235.509 916.053 235.509C916.824 235.509 917.596 235.509 918.281 235.509C922.052 235.252 926.165 232.934 926.936 230.444L928.821 223.49C927.879 223.747 926.679 223.747 925.479 223.747C919.481 223.747 920.424 220.485 921.795 215.505L931.306 180.218H934.477C937.562 180.132 941.161 178.243 941.847 176.183H941.932ZM1057.19 214.904C1057.19 214.904 1057.36 214.045 1057.36 213.874C1057.36 213.359 1057.19 212.672 1056.85 212.242C1056.07 211.212 1054.53 210.611 1052.73 210.611H1040.31C1037.99 219.197 1033.79 224.434 1028.05 224.434C1021.28 224.434 1020.68 220.227 1026.17 200.051C1029.85 186.314 1032.25 179.359 1040.14 179.359C1045.88 179.359 1047.51 182.622 1044.93 192.495H1060.87C1061.73 192.495 1063.44 191.723 1063.87 190.435C1067.39 174.552 1059.67 167.597 1043.39 167.597C1019.06 167.597 1012.37 183.051 1007.57 201.081C1002 221.772 1001.23 236.282 1025.05 236.282C1040.39 236.282 1051.36 230.186 1057.02 216.106C1057.19 215.677 1057.36 215.333 1057.36 214.99L1057.19 214.904ZM1117.34 167.511C1114 167.511 1110.92 168.026 1107.83 169.4C1105.18 170.602 1102.26 172.577 1099.69 175.496H1099.43L1107.15 146.82L1107.75 144.416C1107.75 144.416 1107.92 143.901 1107.92 143.729C1107.92 143.128 1107.75 142.527 1107.4 142.098C1106.63 141.068 1105.09 140.467 1103.29 140.467H1084.95C1084.95 140.467 1084.35 142.355 1084.27 142.699C1086.41 144.416 1087.52 147.078 1087.52 150.168C1087.52 151.199 1087.35 152.401 1087.09 153.603L1065.33 234.994H1075.78C1080.07 234.994 1084.35 232.333 1085.38 229.07L1096.01 189.405C1097.64 183.481 1099.86 178.93 1105.78 178.93C1111.69 178.93 1111.52 183.481 1109.89 189.405L1097.72 234.908H1108.18C1112.46 234.908 1116.83 232.247 1117.77 228.984L1130.37 181.935C1132.85 172.749 1126.51 167.511 1117.77 167.511H1117.34ZM1429.35 172.148C1429.35 171.547 1429.18 171.031 1428.84 170.516C1428.06 169.486 1426.52 168.885 1424.72 168.885H1412.9L1410.84 176.612H1410.58C1409.64 170.43 1404.76 167.597 1398.16 167.597C1378.96 167.597 1373.74 186.056 1369.88 200.566C1365.94 215.505 1359.94 234.05 1380.16 234.05C1386.25 234.05 1392.16 231.474 1396.27 226.323H1396.53L1393.1 239.03C1391.47 245.726 1388.05 250.019 1383.42 250.019C1380.59 250.019 1378.71 249.075 1378.02 247.443C1377.16 245.898 1377.33 243.494 1378.19 240.747H1360.2C1356.25 256.888 1367.05 260.408 1380.76 260.408C1406.13 260.408 1410.58 242.292 1411.87 237.742L1429.18 173.006C1429.18 173.006 1429.18 172.491 1429.18 172.233L1429.35 172.148ZM1403.21 201.682C1399.44 215.677 1396.7 222.631 1390.02 222.631C1381.11 222.631 1385.3 210.096 1387.02 203.914C1392.42 183.824 1394.9 178.93 1401.84 178.93C1408.78 178.93 1407.16 187.172 1403.21 201.682Z" fill="url(#paint2_linear_1621_8368)"/>
<path d="M2118.31 122.694C2115.48 119.002 2109.91 116.77 2103.49 116.77H2010.85C2010.6 117.714 2009.14 122.436 2008.97 123.38C2015.22 128.618 2018.74 136.345 2018.57 145.703C2018.57 148.966 2018.05 152.314 2017.19 155.92L1965.01 351.329H2033.05C2048.56 351.329 2064.24 341.541 2067.32 329.865L2119.85 131.365C2120.11 130.421 2120.2 129.476 2120.2 128.618C2120.2 126.471 2119.51 124.411 2118.23 122.694H2118.31Z" fill="#00367B"/>
<path d="M2522.86 116.767L2508.98 166.736H2595.02L2545.57 351.327H2613.61C2629.12 351.327 2644.89 341.539 2647.97 329.863L2691.16 166.65H2773.6C2781.14 166.65 2789.28 160.468 2791.17 152.999L2800.76 116.682H2522.78L2522.86 116.767Z" fill="#00367B"/>
<path d="M2505.04 0C2506.67 8.92905 2507.53 17.6005 2507.61 25.8427C2508.38 71.3465 2488.5 106.032 2465.28 131.017C2463.39 133.077 2464.42 134.537 2466.82 133.335C2533.66 99.4215 2581.39 53.0591 2604.1 0.0858562H2504.95L2505.04 0Z" fill="url(#paint3_linear_1621_8368)"/>
<path d="M2334.51 103.966C2293.81 104.396 2251.14 109.375 2212.15 117.446C2211.12 121.395 2201.69 156.596 2198.86 166.813C2231.77 156.768 2269.39 150.5 2306.06 149.814C2329.37 149.642 2342.14 152.303 2350.2 159C2352 160.46 2353.28 162.263 2354.39 164.237C2385.16 157.111 2413.18 146.379 2437.43 132.9C2428.52 123.885 2420.38 118.905 2412.67 115.9C2393.3 107.486 2369.73 103.623 2334.51 103.966Z" fill="#00367B"/>
<path d="M2448.74 152.65C2447.71 148.786 2446.08 145.867 2446.08 145.867C2424.32 162.695 2396.3 177.205 2365.79 188.795C2321.74 205.537 2282.15 213.35 2282.15 213.35C2282.15 213.35 2246.76 220.648 2221.48 227.173C2195.35 233.87 2156.02 247.693 2146.5 279.717C2141.45 296.717 2142.65 319.383 2153.02 332.347C2170.33 354.068 2205.2 364.371 2266.82 363.684C2322.6 363.083 2385.41 348.402 2386.01 348.144C2402.12 344.109 2410.95 334.579 2414.89 319.984L2447.71 194.376C2449.94 185.533 2451.14 177.376 2451.22 169.993C2451.22 163.725 2450.2 157.887 2448.57 152.65H2448.74ZM2322.69 307.105C2321.32 312.085 2316.52 316.549 2311.38 317.408C2308.29 318.009 2296.04 321.357 2282.93 321.529C2259.45 321.701 2246.25 316.807 2238.19 306.933C2232.88 300.408 2231.17 291.823 2233.22 282.121C2239.05 255.591 2268.36 239.708 2337.68 228.804L2343.68 227.774L2322.6 307.019L2322.69 307.105Z" fill="#00367B"/>
<path d="M1791.99 234.309L1786.94 231.132C1786.94 231.132 1896.28 149.139 1931.84 123.297L1933.56 116.857H1844.87C1842.81 118.231 1728.41 205.032 1728.41 205.032L1747.86 131.539C1748.12 130.594 1748.21 129.736 1748.21 128.877C1748.21 126.731 1747.52 124.67 1746.24 122.953C1743.41 119.261 1737.92 117.029 1731.41 117.029H1638.69C1638.43 117.974 1636.98 122.696 1636.81 123.554C1643.06 128.877 1646.58 136.604 1646.4 145.877C1646.4 149.139 1645.89 152.574 1645.03 156.094L1592.85 351.331H1660.89C1676.4 351.331 1692.08 341.801 1695.16 330.21L1715.21 254.743L1719.93 258.52C1752.41 284.363 1775.28 316.387 1791.48 351.073H1914.88C1884.11 305.226 1839.98 264.959 1791.91 234.48L1791.99 234.309Z" fill="#00367B"/>
<path d="M2002.71 432.279H2029.19V443.698H2011.63C2018.99 448.85 2024.39 456.92 2024.39 466.45C2024.39 482.419 2010.94 495.47 1994.4 495.47C1977.86 495.47 1964.58 482.334 1964.58 466.45C1964.58 456.92 1970.15 448.764 1977.09 443.698H1959.35V432.279H1986.52V417.941H2002.63V432.279H2002.71ZM2010.51 465.849C2010.51 456.577 2002.8 448.077 1994.49 448.077C1986.17 448.077 1978.46 456.663 1978.46 465.849C1978.46 475.036 1986.17 483.364 1994.49 483.364C2002.8 483.364 2010.51 475.036 2010.51 465.849ZM2054.64 456.834H2070.67V468.768H2054.64V514.186H2039.82V421.204H2054.64V456.748V456.834Z" fill="#6D6D66"/>
<path d="M2145.99 473.583C2148.56 464.912 2150.79 445.68 2150.53 437.524H2095.17V425.59H2166.21C2166.47 438.554 2163.9 461.478 2160.99 473.583H2184.98V485.002H2139.48V505.78H2167.33V549.91H2152.33V517.284H2093.97V505.78H2123.62V485.002H2077.69V473.583H2146.08H2145.99Z" fill="#6D6D66"/>
<path d="M2236.4 535.925V504.416H2221.4V547.773H2292.95V535.925H2236.4Z" fill="#6D6D66"/>
<path d="M2290.04 456.845V421.301H2275.21V514.283H2290.04V468.865H2306.06V456.845H2290.04Z" fill="#6D6D66"/>
<path d="M2510.27 547.752V421.457H2525.27V547.752H2510.27Z" fill="#6D6D66"/>
<path d="M2588.16 484.913H2539.49V473.924H2652.43V484.913H2604.02V496.59H2634.86V527.241H2572.57V536.942H2637.35V547.846H2556.63V517.109H2619.1V507.408H2556.63V496.59H2588.25V484.913H2588.16Z" fill="#6D6D66"/>
<path d="M2840.7 426.884H2872.4V437.873H2855.09C2859.46 441.909 2862.03 446.974 2862.03 452.812C2862.03 467.064 2848.24 478.312 2832.64 478.312C2817.05 478.312 2803.42 467.064 2803.42 452.812C2803.42 446.974 2805.99 441.909 2810.11 437.873H2792.97V426.884H2824.76V415.465H2840.87V426.884H2840.7ZM2847.47 452.812C2847.47 444.398 2840.78 437.959 2832.56 437.959C2824.33 437.959 2817.73 444.398 2817.73 452.812C2817.73 461.226 2824.33 467.665 2832.56 467.665C2840.78 467.665 2847.47 460.969 2847.47 452.812ZM2832.64 501.321C2850.21 501.321 2865.55 512.997 2865.55 528.108C2865.55 543.219 2850.21 554.81 2832.64 554.81C2815.08 554.81 2799.74 543.133 2799.74 528.108C2799.74 513.083 2814.9 501.321 2832.64 501.321ZM2832.39 544.507C2842.33 544.507 2851.07 537.381 2851.07 528.108C2851.07 518.836 2843.27 511.796 2832.81 511.796C2822.36 511.796 2814.13 519.093 2814.13 528.108C2814.13 537.123 2822.45 544.507 2832.39 544.507ZM2778.4 496.084V485.094H2886.89V496.084H2778.4Z" fill="#6D6D66"/>
<path d="M2708.13 535.925V504.416H2693.22V547.773H2765.12V535.925H2708.13Z" fill="#6D6D66"/>
<path d="M2762.21 421.301H2747.38V514.283H2762.21V421.301Z" fill="#6D6D66"/>
<path d="M2001 535.902V504.393H1986V547.75H2057.56V535.902H2001Z" fill="#6D6D66"/>
<path d="M2237.77 431.085V424.131H2221.31V431.085C2221.31 460.62 2209.74 474.872 2192.26 485.776L2200.23 494.533C2209.92 489.038 2222.94 477.877 2229.45 463.968C2236.05 477.877 2248.99 488.952 2258.67 494.533L2266.64 485.776C2249.25 474.872 2237.59 460.62 2237.59 431.085H2237.77Z" fill="#6D6D66"/>
<path d="M2604.27 423.62V420.615H2587.56V423.62C2587.56 447.917 2552.6 458.735 2552.6 458.735L2559.46 468.265C2559.46 468.265 2583.02 460.281 2595.96 443.367C2608.9 460.195 2632.47 468.265 2632.47 468.265L2639.32 458.735C2639.32 458.735 2604.27 447.832 2604.36 423.62H2604.27Z" fill="#6D6D66"/>
<path d="M2705.47 441.814C2705.47 440.698 2705.64 439.668 2705.64 438.552H2727.41V426.961H2667.25V438.552H2689.02C2689.02 439.668 2689.11 440.784 2689.19 441.814C2689.53 473.152 2661.6 486.545 2661.6 486.545L2670.51 495.818C2670.51 495.818 2686.88 487.575 2697.25 468.859C2707.62 487.49 2723.98 495.818 2723.98 495.818L2732.9 486.545C2732.9 486.545 2704.96 473.152 2705.3 441.814H2705.47Z" fill="#6D6D66"/>
<path d="M2376.67 455.969C2376.67 439.055 2362.62 425.061 2345.74 425.061C2328.86 425.061 2314.72 438.969 2314.72 455.969C2314.72 472.968 2328.77 486.877 2345.74 486.877C2362.71 486.877 2376.67 472.882 2376.67 455.969ZM2329.29 455.969C2329.29 445.752 2336.66 437.338 2345.74 437.338C2354.82 437.338 2362.11 445.752 2362.11 455.969C2362.11 466.186 2354.74 474.6 2345.74 474.6C2336.74 474.6 2329.29 466.186 2329.29 455.969Z" fill="#6D6D66"/>
<path d="M2398.78 510.682H2358.25V497.031H2343.26V547.772H2413.78V497.031H2398.78V510.682ZM2398.78 536.353H2358.25V521.844H2398.78V536.353Z" fill="#6D6D66"/>
<path d="M2398.95 421.457V450.133H2369.56V462.239H2398.95V490.829H2413.78V421.457H2398.95Z" fill="#6D6D66"/>
<path d="M2435.98 432.801V444.649H2478.14C2475.82 481.395 2459.11 504.147 2431.43 521.92L2439.92 530.505C2470.08 515.223 2494.25 482.683 2494.25 438.725V432.887H2435.98V432.801Z" fill="#6D6D66"/>
<path d="M2940.61 508.593V490.649C2955.27 489.962 2968.21 488.76 2976 487.644V476.998C2963.67 478.372 2934.44 480.261 2917.13 480.261H2897V491.25L2922.1 491.078H2925.36V508.593H2940.61Z" fill="#6D6D66"/>
<path d="M2940.44 535.9V515.295H2925.45V547.749H3000V535.9H2940.44Z" fill="#6D6D66"/>
<path d="M2997.08 421.457H2982.26V495.379H2956.72V506.197H2982.26V517.959H2997.08V462.325V421.457Z" fill="#6D6D66"/>
<path d="M2933.33 476.235C2949.7 476.235 2963.32 463.958 2963.32 448.847C2963.32 433.737 2949.7 421.545 2933.33 421.545C2916.96 421.545 2903.51 433.651 2903.51 448.847C2903.51 464.044 2917.05 476.235 2933.33 476.235ZM2933.33 432.535C2941.73 432.535 2948.93 439.918 2948.93 448.761C2948.93 457.605 2941.73 464.988 2933.33 464.988C2924.93 464.988 2917.73 457.605 2917.73 448.761C2917.73 439.918 2925.02 432.535 2933.33 432.535Z" fill="#6D6D66"/>
</g>
<defs>
<linearGradient id="paint0_linear_1621_8368" x1="181.353" y1="323.676" x2="1464.04" y2="313.844" gradientUnits="userSpaceOnUse">
<stop stop-color="#007AB1"/>
<stop offset="1" stop-color="#61CAE6"/>
</linearGradient>
<linearGradient id="paint1_linear_1621_8368" x1="-6.44293" y1="318.598" x2="1463.99" y2="307.328" gradientUnits="userSpaceOnUse">
<stop stop-color="#8DC63F"/>
<stop offset="0.72" stop-color="#FFF200"/>
<stop offset="0.99" stop-color="#FFC831"/>
</linearGradient>
<linearGradient id="paint2_linear_1621_8368" x1="56.4744" y1="200.308" x2="1493.28" y2="200.308" gradientUnits="userSpaceOnUse">
<stop stop-color="#F26F68"/>
<stop offset="0.23" stop-color="#F2755B"/>
<stop offset="0.66" stop-color="#F4853A"/>
<stop offset="1" stop-color="#F7941C"/>
</linearGradient>
<linearGradient id="paint3_linear_1621_8368" x1="1895.08" y1="148.326" x2="2035.02" y2="15.1846" gradientUnits="userSpaceOnUse">
<stop stop-color="#FDB812"/>
<stop offset="0.7" stop-color="#F5821F"/>
<stop offset="0.9" stop-color="#F05321"/>
<stop offset="1" stop-color="#EF4122"/>
</linearGradient>
<clipPath id="clip0_1621_8368">
<rect width="3000" height="554.717" fill="white"/>
</clipPath>
</defs>
</svg>
