<svg width="3000" height="560" viewBox="0 0 3000 560" fill="none" xmlns="http://www.w3.org/2000/svg">
<g clip-path="url(#clip0_1621_8407)">
<mask id="mask0_1621_8407" style="mask-type:luminance" maskUnits="userSpaceOnUse" x="0" y="0" width="3000" height="560">
<path d="M3000 0H0V559.322H3000V0Z" fill="white"/>
</mask>
<g mask="url(#mask0_1621_8407)">
<path d="M558.261 279.661C558.261 434.089 433.265 559.322 279.13 559.322C124.996 559.322 0 434.089 0 279.661C0 125.234 124.996 0 279.13 0C433.265 0 558.261 125.234 558.261 279.661Z" fill="white"/>
<path d="M410.085 260.118C365.728 229.902 308.937 242.176 279.056 287.638C254.188 325.572 216.606 330.313 202.129 330.313C154.617 330.313 122.232 296.843 112.581 262.258C112.581 262.258 112.395 261.607 112.303 261.235C112.21 260.863 112.117 260.491 112.024 260.118C108.22 245.615 107.292 238.829 107.292 223.488C107.292 140.835 192.014 48.6997 313.948 48.6997C435.883 48.6997 510.397 143.997 528.864 196.991C528.492 195.968 528.214 195.132 527.936 194.201C492.395 90.5372 394.403 16.0664 278.871 16.0664C133.738 16.0664 15.8877 134.049 15.8877 279.643C15.8877 409.804 109.519 521.093 239.526 521.093C343.086 521.093 412.776 462.892 444.698 382.657C462.236 338.773 449.801 287.174 410.085 260.118Z" fill="#003763"/>
<path d="M530.404 202.037C515 150.344 442.99 48.6328 313.911 48.6328C191.978 48.6328 107.254 140.768 107.254 223.421C107.254 238.762 108.182 245.641 111.987 260.051C110.409 253.73 109.574 247.408 109.574 241.272C109.574 155.086 195.597 95.4909 284.123 95.4909C403.923 95.4909 501.081 192.74 501.081 312.768C501.081 406.856 447.073 488.299 368.568 527.44C469.808 490.81 542.003 393.653 542.003 279.576C542.003 252.614 538.385 228.813 530.497 202.037" fill="#E4022D"/>
<path d="M845.671 351.325V378.938H684.206V351.325H734.966V269.509H765.588V351.325H845.578H845.671ZM799.738 322.224V195.688H693.485V168.354H830.081V322.224H799.738ZM895.595 403.854H864.694V154.688H895.595V259.746H927.332V289.126H895.595V403.947V403.854Z" fill="#575756"/>
<path d="M1089.05 170.324V197.099H944.103V170.324H1000.99V149.684H1033.65V170.324H1089.14H1089.05ZM954.403 318.894H1150.11V401.546H1119.39V346.227H954.311V318.8L954.403 318.894ZM1074.85 254.928C1074.85 262.18 1073.28 269.059 1070.21 275.568C1067.15 282.076 1063.07 287.747 1058.06 292.581C1052.68 297.23 1046.55 301.042 1039.68 303.924C1032.82 306.807 1025.39 308.202 1017.41 308.202C1009.43 308.202 1001.92 306.807 994.956 303.924C987.996 301.042 981.871 297.23 976.675 292.581C971.478 287.747 967.302 282.076 964.24 275.568C961.178 269.059 959.6 262.18 959.6 254.928C959.6 247.677 961.178 240.796 964.24 234.381C967.302 227.966 971.478 222.295 976.675 217.461C981.871 212.812 987.996 209 994.956 206.118C1001.92 203.236 1009.43 201.84 1017.41 201.84C1025.39 201.84 1032.82 203.329 1039.68 206.118C1046.55 209 1052.68 212.812 1058.06 217.461C1063.07 222.295 1067.15 227.966 1070.21 234.381C1073.28 240.796 1074.85 247.677 1074.85 254.928ZM1045.25 254.649C1045.25 247.212 1042.47 240.796 1036.99 235.498C1031.52 230.198 1024.93 227.502 1017.32 227.502C1009.71 227.502 1003.21 230.198 997.832 235.498C992.45 240.796 989.759 247.212 989.759 254.649C989.759 262.087 992.45 268.503 997.832 273.895C1003.21 279.287 1009.71 281.984 1017.32 281.984C1024.93 281.984 1031.52 279.287 1036.99 273.895C1042.47 268.503 1045.25 262.087 1045.25 254.649ZM1150.11 304.948H1119.39V154.704H1150.11V213.09H1185.84V243.586H1150.11V305.04V304.948Z" fill="#575756"/>
<path d="M1333.83 371.127H1302.93V197.919H1207.63V170.028H1333.92V371.127H1333.83ZM1396.01 154.688H1426.91V403.854H1396.01V154.688Z" fill="#575756"/>
<path d="M1568.04 296.012V276.767H1469.31V251.386H1697.96V276.767H1598.95V296.012H1679.49V359.141H1518.02V374.202H1682.83V399.584H1487.68V334.782H1648.87V320.557H1487.68V296.012H1567.96H1568.04ZM1583.63 183.98L1496.68 245.714L1478.31 224.237L1583.73 149.953L1689.15 224.237L1670.77 245.714L1583.82 183.98H1583.63Z" fill="#575756"/>
<path d="M1728.89 188.436V161.94H1871.62V188.436H1810.83L1874.12 265.789L1852.68 283.64L1801.37 219.676L1750.88 287.824L1728.61 269.974L1791.9 188.436H1728.89ZM1926.63 350.767C1926.63 359.134 1924.88 367.037 1921.45 374.382C1918.02 381.726 1913.38 388.235 1907.62 393.813C1901.86 399.391 1894.99 403.854 1887.11 407.108C1879.22 410.361 1870.78 412.035 1861.87 412.035C1852.96 412.035 1844.8 410.455 1836.81 407.108C1828.83 403.761 1821.96 399.391 1816.22 393.813C1810.46 388.235 1805.82 381.726 1802.39 374.382C1798.96 367.037 1797.19 359.134 1797.19 350.767C1797.19 342.399 1798.96 334.497 1802.39 327.152C1805.82 319.807 1810.46 313.299 1816.22 307.721C1821.96 302.141 1828.83 297.679 1836.81 294.425C1844.8 291.171 1853.15 289.498 1861.87 289.498C1870.59 289.498 1879.22 291.171 1887.11 294.425C1894.99 297.679 1901.86 302.141 1907.62 307.721C1913.38 313.299 1918.02 319.807 1921.45 327.152C1924.88 334.497 1926.63 342.399 1926.63 350.767ZM1896.2 350.487C1896.2 341.191 1892.77 333.195 1885.99 326.501C1879.22 319.807 1871.06 316.46 1861.59 316.46C1852.13 316.46 1844.32 319.807 1837.65 326.501C1830.96 333.195 1827.62 341.191 1827.62 350.487C1827.62 359.785 1830.96 368.059 1837.65 374.66C1844.32 381.261 1852.31 384.608 1861.59 384.608C1870.87 384.608 1879.22 381.261 1885.99 374.66C1892.77 368.059 1896.2 359.97 1896.2 350.487ZM1916.81 286.802V232.877H1870.5V206.102H1916.81V154.688H1947.71V286.802H1916.81Z" fill="#575756"/>
<path d="M2169.66 203.492V165.188H2200.28V307.621H2119.74V357.92H2218.75V385.253H1990.11V357.92H2088.84V307.621H2008.56V165.188H2038.91V203.492H2169.66ZM2169.66 280.66V230.361H2038.91V280.66H2169.66Z" fill="#575756"/>
<path d="M2268.97 258.276V157.123H2460.5V182.225H2299.59V195.334H2459.39V219.599H2299.59V233.545H2461.33V258.091H2380.23V273.988H2479.25V299.37H2250.6V273.988H2349.33V258.091H2269.07L2268.97 258.276ZM2425.7 359.988C2425.7 367.426 2424.13 374.492 2421.06 381.093C2418 387.695 2413.73 393.551 2408.35 398.572C2402.59 403.592 2396.01 407.59 2388.67 410.566C2381.35 413.54 2373.37 415.028 2364.83 415.028C2356.3 415.028 2348.59 413.54 2341.17 410.566C2333.75 407.59 2327.25 403.592 2321.68 398.572C2316.11 393.551 2311.75 387.695 2308.69 381.093C2305.63 374.492 2304.05 367.426 2304.05 359.988C2304.05 352.55 2305.63 345.298 2308.69 338.791C2311.75 332.282 2316.11 326.425 2321.68 321.219C2327.25 316.198 2333.75 312.2 2341.17 309.318C2348.59 306.437 2356.47 304.948 2364.83 304.948C2373.18 304.948 2381.35 306.437 2388.67 309.318C2396.01 312.2 2402.59 316.198 2408.35 321.219C2413.73 326.425 2418 332.282 2421.06 338.791C2424.13 345.298 2425.7 352.365 2425.7 359.988ZM2394.99 359.709C2394.99 351.528 2392.02 344.554 2386.08 338.791C2380.14 333.026 2373.09 330.144 2364.91 330.144C2356.75 330.144 2349.61 333.026 2343.57 338.791C2337.55 344.554 2334.48 351.528 2334.48 359.709C2334.48 367.891 2337.55 374.957 2343.57 380.814C2349.61 386.671 2356.75 389.646 2364.91 389.646C2373.09 389.646 2380.14 386.671 2386.08 380.814C2392.02 374.957 2394.99 367.891 2394.99 359.709Z" fill="#575756"/>
<path d="M2585.67 153.291L2663.99 280.386L2638.93 296.005L2585.67 206.658L2532.67 297.957L2507.07 282.337L2585.67 153.291ZM2527.38 398.739V315.529H2558.01V371.405H2731.17V398.739H2527.38ZM2698.04 314.134V154.593H2728.94V314.134H2698.04Z" fill="#575756"/>
<path d="M2771.34 312.192H2999.99V339.527H2900.97V403.77H2870.07V339.527H2771.34V312.192ZM2820.14 190.399H2950.89V158.881H2981.52V278.722H2789.71V158.881H2820.05V190.399H2820.14ZM2950.89 217.268H2820.14V251.667H2950.89V217.268Z" fill="#575756"/>
</g>
</g>
<defs>
<clipPath id="clip0_1621_8407">
<rect width="3000" height="559.322" fill="white"/>
</clipPath>
</defs>
</svg>
